<svg id="_x35_0" enable-background="new 0 0 512 512" height="512" viewBox="0 0 512 512" width="512" xmlns="http://www.w3.org/2000/svg"><g><g><circle cx="256" cy="256" fill="#14a36d" r="256"/><circle cx="256" cy="256" fill="#15be79" r="203.32"/><path d="m28.29 373.08c7.17 13.92 15.58 27.1 25.08 39.38 9.44 12.21 19.95 23.54 31.41 33.85 28.46 25.62 62.7 44.96 100.53 55.8 22.45 6.44 46.17 9.89 70.69 9.89 99.19 0 185.21-56.42 227.71-138.92z" fill="#eea47d"/><g fill="#f5b890"><path d="m131.42 373.08v106.62c6.668 3.708 13.507 7.145 20.48 10.25v-116.87z"/><path d="m311.468 373.08v101.554c0 5.66 4.59 10.25 10.25 10.25 5.65 0 10.24-4.59 10.24-10.25v-101.554z"/><path d="m183.294 373.08v61.027c0 5.66 4.59 10.25 10.25 10.25 5.65 0 10.24-4.59 10.24-10.25v-61.027z"/><path d="m46.905 373.08v19.502c0 5.66 4.59 10.25 10.25 10.25 5.65 0 10.24-4.59 10.24-10.25v-19.502z"/><path d="m206.29 473.18v33.99c6.74 1.33 13.57 2.39 20.49 3.17v-37.16c0-5.65-4.59-10.24-10.24-10.24-5.656.004-10.249 4.576-10.25 10.24z"/><path d="m84.79 401.658v44.652c6.53 5.9 13.37 11.45 20.49 16.63v-61.282c-.528-13.576-19.964-13.572-20.49 0z"/><path d="m263.37 373.08v138.81c6.849-.186 13.674-.653 20.48-1.39v-137.42z"/><path d="m348.32 406.75v88.1c6.98-2.7 13.81-5.7 20.48-8.98v-79.12c-.518-13.58-19.966-13.573-20.48 0z"/><path d="m416.17 373.6v82.11c7.145-5.736 13.984-11.856 20.48-18.32v-63.79c0-.17 0-.35-.01-.52h-20.46c-.01.18-.01.35-.01.52z"/></g></g><g><g><g><path d="m53.37 405.09v7.37c9.44 12.21 19.95 23.54 31.41 33.85 28.46 25.62 62.7 44.96 100.53 55.8v-97.02c0-12.23-4.46-23.41-11.85-32.01-9.01-10.47-22.35-17.1-37.24-17.1h-33.75c-14.9 0-28.24 6.63-37.24 17.1-7.4 8.6-11.86 19.78-11.86 32.01z" fill="#f39e22"/><path d="m84.78 405.09v41.22c28.46 25.62 62.7 44.96 100.53 55.8v-97.02c0-12.23-4.46-23.41-11.85-32.01-9.01-10.47-22.35-17.1-37.24-17.1h-2.33c-14.9 0-28.24 6.63-37.25 17.1-7.39 8.6-11.86 19.78-11.86 32.01z" fill="#f9c744"/></g><g><path d="m141.143 335.366v23.678c0 12.042-9.767 21.794-21.809 21.794-4.039 0-7.822-1.1-11.063-3.014-6.421-3.783-10.731-10.776-10.731-18.78v-23.678z" fill="#9b5b42"/><path d="m97.54 335.366v23.678c0 8.003 4.311 14.997 10.731 18.78v-25.306c7.581 3.165 15.916 4.913 24.657 4.913 2.788 0 5.532-.181 8.214-.512v-21.553z" fill="#8e4e3f"/></g><g><g><g><path d="m57.978 264.253h10.812v-33.831h-10.812c-9.342 0-16.916 7.573-16.916 16.916 0 9.341 7.574 16.915 16.916 16.915z" fill="#8e4e3f"/><path d="m57.433 254.596h11.357v-14.517h-11.357c-4.009 0-7.259 3.25-7.259 7.259 0 4.008 3.25 7.258 7.259 7.258z" fill="#723e33"/></g><g><path d="m201.808 230.421h-4.735v33.831h4.735c9.342 0 16.916-7.573 16.916-16.916 0-9.341-7.574-16.915-16.916-16.915z" fill="#8e4e3f"/><path d="m202.353 240.078h-5.28v14.517h5.28c4.009 0 7.259-3.25 7.259-7.259 0-4.008-3.25-7.258-7.259-7.258z" fill="#723e33"/></g></g><g><path d="m197.075 192.771v89.105c0 17.71-7.174 33.746-18.78 45.351-8.38 8.365-19.051 14.424-30.988 17.167-4.627 1.055-9.435 1.613-14.379 1.613-35.419 0-64.146-28.712-64.146-64.131v-89.105c0-19.413 15.75-35.148 35.163-35.148h57.982c3.406 0 6.692.482 9.811 1.402 14.636 4.235 25.337 17.739 25.337 33.746z" fill="#8e4e3f"/><path d="m197.075 192.771v89.105c0 17.71-7.174 33.746-18.78 45.351-8.38 8.365-19.051 14.424-30.988 17.167-28.516-6.526-49.768-32.043-49.768-62.518v-34.093c0-44.357 32.013-81.223 74.199-88.758 14.636 4.235 25.337 17.739 25.337 33.746z" fill="#9b5b42"/><g><g fill="#8e4e3f"><path d="m151.068 251.817h-13.077c-5.371 0-9.725 4.354-9.725 9.725 0 5.371 4.354 9.725 9.725 9.725h13.077c5.371 0 9.725-4.354 9.725-9.725-.001-5.371-4.354-9.725-9.725-9.725z"/><path d="m141.134 187.816c-4.53 0-8.202 3.672-8.202 8.202v62.4h16.405v-62.4c-.001-4.53-3.673-8.202-8.203-8.202z"/></g></g><g fill="#334353"><path d="m115.523 213.779c-4.908 0-8.887 3.979-8.887 8.887v15.512c0 4.908 3.979 8.887 8.887 8.887 4.908 0 8.887-3.979 8.887-8.887v-15.512c0-4.908-3.978-8.887-8.887-8.887z"/><path d="m166.744 213.779c-4.908 0-8.887 3.979-8.887 8.887v15.512c0 4.908 3.979 8.887 8.887 8.887 4.908 0 8.887-3.979 8.887-8.887v-15.512c0-4.908-3.979-8.887-8.887-8.887z"/></g><g><path d="m135.253 307.107c-15.396 0-27.921-12.525-27.921-27.92 0-2.914 2.362-5.275 5.275-5.275 2.914 0 5.275 2.362 5.275 5.275 0 9.577 7.792 17.37 17.37 17.37 2.914 0 5.275 2.362 5.275 5.275.002 2.913-2.36 5.275-5.274 5.275z" fill="#723e33"/></g></g></g></g><g id="Glasses_3_"><path d="m106.146 257.021c14.246 0 25.835-11.59 25.835-25.835h-5.35c0 11.296-9.19 20.486-20.486 20.486s-20.486-9.19-20.486-20.486h-5.35c.002 14.245 11.591 25.835 25.837 25.835z" fill="#fbd9a3"/><path d="m176.122 257.021c14.246 0 25.835-11.59 25.835-25.835h-5.35c0 11.296-9.19 20.486-20.486 20.486s-20.486-9.19-20.486-20.486h-5.35c.002 14.245 11.591 25.835 25.837 25.835z" fill="#fbd9a3"/><path d="m199.868 210.97c-.693-.881-2.741-2.179-3.835-2.605-4.254-1.658-11.162-3.636-19.911-3.636s-15.657 1.977-19.911 3.636c-3.599 1.402-5.924 4.815-5.924 8.694v3.036c-2.287-.641-5.304-.968-9.152-.968-4.076 0-7.019.382-9.153.968v-3.229c0-3.745-2.252-7.054-5.736-8.428-4.286-1.692-11.253-3.709-20.099-3.709-8.845 0-15.813 2.017-20.1 3.709-1.043.412-1.958 1.013-2.753 1.731-.102-.012-.202-.031-.307-.031h-18.094c-1.477 0-2.675 1.198-2.675 2.675s1.198 2.675 2.675 2.675h15.521c-.068.451-.103.911-.103 1.379v14.319h5.35v-14.319c0-1.534.922-2.889 2.349-3.452 3.856-1.522 10.132-3.336 18.136-3.336 8.005 0 14.281 1.814 18.136 3.336 1.427.563 2.35 1.918 2.35 3.452v14.319h5.35v-5.426c.724-.4 3.012-1.282 9.153-1.282 6.359 0 8.549.95 9.152 1.31v5.398h5.35v-14.126c0-1.658.988-3.115 2.517-3.711 3.827-1.492 10.051-3.27 17.969-3.27s14.142 1.778 17.969 3.27c1.53.596 2.517 2.052 2.517 3.711v14.126h5.35v-14.126c-.001-3.374-1.156-4.9-2.091-6.09z" fill="#f39e22"/></g></g><g id="Lightbulb_8_"><g><path d="m302.743 69.655c0 12.246-6.462 22.036-12.438 31.679-.566.917-1.177 2.094-1.822 3.475-1.471 3.135-3.078 7.266-4.595 11.431-3.18 8.771-5.919 17.678-5.919 17.678h-43.924s-7.764-25.171-12.336-32.584c-.951-1.528-1.913-3.056-2.852-4.606-5.014-8.205-9.597-16.773-9.597-27.072 0-10.378 3.384-19.976 9.122-27.729 8.5-11.533 22.194-19.014 37.62-19.014 4.165 0 8.194.543 12.031 1.573 7.436 1.969 14.136 5.727 19.625 10.775 9.279 8.544 15.085 20.79 15.085 34.394z" fill="#daab42"/><path d="m227.49 69.655c0 10.084-3.192 19.433-8.635 27.072-5.014-8.205-9.597-16.773-9.597-27.072 0-10.378 3.384-19.976 9.122-27.729 5.726 7.753 9.11 17.351 9.11 27.729z" fill="#c4983d"/><path d="m302.743 69.655c0 12.246-6.462 22.036-12.438 31.679-.566.917-1.177 2.094-1.822 3.475-1.471 3.135-3.078 7.266-4.595 11.431-1.256.102-2.535.158-3.814.158-25.816 0-46.743-20.927-46.743-46.743 0-21.651 14.724-39.861 34.7-45.169 7.436 1.969 14.136 5.727 19.625 10.775 9.281 8.544 15.087 20.79 15.087 34.394z" fill="#f9c744"/><path d="m302.743 69.655c0 12.246-6.462 22.036-12.438 31.679-.566.917-1.177 2.094-1.822 3.475-7.64-6.711-13.083-15.879-15.075-26.269-.555-2.875-.849-5.851-.849-8.884 0-10.65 3.565-20.474 9.563-28.329 1.664-2.184 3.52-4.21 5.534-6.066 9.281 8.544 15.087 20.79 15.087 34.394z" fill="#f8d07a"/><circle cx="276.191" cy="59.569" fill="#fbd9a3" r="19.179"/><path d="m302.743 69.655c0 12.246-6.462 22.036-12.438 31.679-.566.917-1.177 2.094-1.822 3.475-1.471 3.135-3.078 7.266-4.595 11.431-3.18 8.771-5.919 17.678-5.919 17.678h-43.924s-7.764-25.171-12.336-32.584c-.951-1.528-1.913-3.056-2.852-4.606-5.014-8.205-9.597-16.773-9.597-27.072 0-10.378 3.384-19.976 9.122-27.729 8.5-11.533 22.194-19.014 37.62-19.014 4.165 0 8.194.543 12.031 1.573 7.436 1.969 14.136 5.727 19.625 10.775 9.279 8.544 15.085 20.79 15.085 34.394z" fill="none"/></g><g><path d="m272.558 172.907v6.644c0 6.893-4.222 12.812-10.209 15.302-1.958.804-4.097 1.256-6.349 1.256-9.133 0-16.547-7.413-16.547-16.558v-6.644z" fill="#2e3140"/><path d="m272.558 172.907v6.644c0 6.893-4.222 12.812-10.209 15.302-5.998-2.49-10.22-8.398-10.22-15.302v-6.644z" fill="#3e4e60"/><path d="m272.558 172.907v6.644c0 6.893-4.222 12.812-10.209 15.302-1.958.804-4.097 1.256-6.349 1.256-9.133 0-16.547-7.413-16.547-16.558v-6.644z" fill="none"/></g><g><path d="m248.669 101.532h14.673v32.386h-14.673z" fill="#bf5e39"/><path d="m256.005 101.532h7.336v32.386h-7.336z" fill="#dd5e26"/></g><g><path d="m277.685 92.393c0 .905-.124 1.777-.374 2.592-1.12 3.791-4.629 6.553-8.771 6.553h-25.069c-2.524 0-4.81-1.03-6.463-2.682-1.652-1.652-2.682-3.939-2.682-6.463 0-5.048 4.097-9.145 9.145-9.145h25.069c2.524 0 4.81 1.03 6.462 2.682 1.664 1.652 2.683 3.939 2.683 6.463z" fill="#bf5e39"/><path d="m277.685 92.393c0 .905-.124 1.777-.374 2.592h-23.745c-2.524 0-4.81-1.019-6.462-2.682-1.652-1.652-2.682-3.939-2.682-6.462 0-.905.136-1.777.374-2.592h23.745c2.524 0 4.81 1.03 6.462 2.682 1.663 1.651 2.682 3.938 2.682 6.462z" fill="#dd5e26"/><path d="m275.003 85.93c1.664 1.652 2.682 3.939 2.682 6.462 0 .905-.124 1.777-.374 2.592h-8.5c-2.524 0-4.81-1.019-6.462-2.682-1.652-1.652-2.671-3.939-2.671-6.462 0-.905.124-1.777.373-2.592h8.488c2.525 0 4.811 1.03 6.464 2.682z" fill="#ea792e"/><path d="m277.685 92.393c0 .905-.124 1.777-.374 2.592-1.12 3.791-4.629 6.553-8.771 6.553h-25.069c-2.524 0-4.81-1.03-6.463-2.682-1.652-1.652-2.682-3.939-2.682-6.463 0-5.048 4.097-9.145 9.145-9.145h25.069c2.524 0 4.81 1.03 6.462 2.682 1.664 1.652 2.683 3.939 2.683 6.463z" fill="none"/></g><g><path d="m290.78 146.152c0 .215-.011.419-.023.611-.419 6.202-7.209 7.379-12.201 11.612-1.019.871-.871 5.263-.871 5.263 0 11.974-9.711 21.685-21.685 21.685-7.209 0-13.593-3.52-17.531-8.941-.792-1.087-1.483-2.252-2.071-3.486-.815-1.72-1.403-3.576-1.743-5.512-.215-1.211-.328-2.467-.328-3.746 0 0 .147-4.391-.871-5.263-5.15-4.369-12.223-5.478-12.223-12.223 0-6.757 5.467-12.235 12.223-12.235h45.102c6.755.001 12.222 5.478 12.222 12.235z" fill="#c1b7d3"/><path d="m290.757 146.152v.611c-.419 6.202-7.209 7.379-12.201 11.612-1.019.871-.871 5.263-.871 5.263 0 11.974-9.711 21.685-21.685 21.685-7.209 0-13.593-3.52-17.531-8.941-.792-1.087-1.483-2.252-2.071-3.486-.815-1.72-1.403-3.576-1.743-5.512-.215-1.211-.328-2.467-.328-3.746 0 0 .147-4.391-.871-5.263-5.15-4.369-12.223-5.478-12.223-12.223z" fill="#aea7b9"/><path d="m263.345 146.152s-3.633 26.144-26.948 26.744c-1.324-2.807-2.071-5.942-2.071-9.258 0 0 .147-4.391-.871-5.263-5.15-4.369-12.223-5.478-12.223-12.223z" fill="#9f90ae"/><path d="m252.786 140.029c0 3.384-2.739 6.123-6.112 6.123h-25.443c0-6.757 5.467-12.235 12.223-12.235h13.219c3.374.001 6.113 2.739 6.113 6.112z" fill="#aea7b9"/><path d="m269.276 171.889c0 2.479-2.015 4.493-4.504 4.493h-26.303c-.792-1.087-1.483-2.252-2.071-3.486-.815-1.72-1.403-3.576-1.743-5.512h30.117c2.489 0 4.504 2.015 4.504 4.505z" fill="#c1b7d3"/><g fill="#ebd9ea"><path d="m260.292 176.384h-2.87c-2.484 0-4.498-2.014-4.498-4.498 0-2.484 2.014-4.498 4.498-4.498h2.87c2.484 0 4.498 2.014 4.498 4.498-.001 2.485-2.014 4.498-4.498 4.498z"/><path d="m276.284 142.913h-13.653c-2.484 0-4.498-2.014-4.498-4.498 0-2.484 2.014-4.498 4.498-4.498h13.653c2.484 0 4.498 2.014 4.498 4.498 0 2.485-2.014 4.498-4.498 4.498z"/></g></g></g><g id="Laptop_4_"><g><g><path d="m267.266 231.445v104.397c0 8.567 6.942 15.509 15.502 15.509h166.724c8.567 0 15.509-6.942 15.509-15.509v-104.397c0-.908-.08-1.803-.239-2.672-1.253-7.294-7.612-12.837-15.27-12.837h-166.724c-8.56 0-15.502 6.942-15.502 15.509z" fill="#3e4e60"/><path d="m341.739 351.35h107.752c8.567 0 15.509-6.942 15.509-15.509v-104.396c0-.908-.08-1.803-.239-2.672-65.449 5.078-117.717 57.188-123.022 122.577z" fill="#334353"/><path d="m267.266 231.445v80.063c6.259 1.445 12.777 2.215 19.474 2.215 47.454 0 85.924-38.47 85.924-85.924 0-4.025-.279-7.983-.816-11.862h-89.081c-8.559-.001-15.501 6.941-15.501 15.508z" fill="#3f5d77"/></g><g><g><path d="m200.828 404.288v9.959c-.007.106-.007.212 0 .312v.027c.139 1.644 2.128 2.685 5.855 2.685h172.737c6.902 0 17.146-3.547 22.882-7.923l52.315-39.929c2.652-2.022 3.872-3.866 3.74-5.265v-10.145h-11.875v7.486h-166.718c-6.902 0-17.146 3.547-22.882 7.923l-46.911 35.798v-.928z" fill="#334353"/><path d="m368.281 389.383c0 9.74 1.552 19.109 4.429 27.888h6.71c6.902 0 17.146-3.547 22.882-7.923l52.315-39.929c2.652-2.022 3.872-3.866 3.74-5.265v-10.145h-11.875v7.486h-73.772c-2.877 8.779-4.429 18.148-4.429 27.888z" fill="#2e3140"/><path d="m200.828 404.288v9.959c-.007.106-.007.212 0 .312v.027c.139 1.644 2.128 2.685 5.855 2.685h98.237c18.134-13.142 31.143-32.92 35.473-55.776h-60.629c-6.902 0-17.146 3.547-22.882 7.923l-46.911 35.798v-.928z" fill="#3e4e60"/></g><g><path d="m206.683 407.126h172.737c6.902 0 17.146-3.547 22.882-7.923l52.315-39.929c5.735-4.376 4.787-7.923-2.115-7.923h-172.738c-6.902 0-17.146 3.547-22.882 7.923l-14.786 11.285-37.529 28.644c-5.735 4.376-4.786 7.923 2.116 7.923z" fill="#3f5d77"/><path d="m206.683 407.126h109.96c14.229-14.647 23.498-34.14 25.083-55.776h-61.962c-6.902 0-17.146 3.547-22.882 7.923l-14.786 11.285-37.529 28.644c-5.735 4.377-4.786 7.924 2.116 7.924z" fill="#426c8c"/><path d="m368.281 389.383c0 6.073.603 12.008 1.757 17.743h9.382c6.902 0 17.146-3.547 22.882-7.923l52.315-39.929c5.735-4.376 4.787-7.923-2.115-7.923h-75.767c-5.424 11.543-8.454 24.433-8.454 38.032z" fill="#3e4e60"/><path d="m242.096 370.559c9.19 2.884 20.521 4.575 32.781 4.575 30.712 0 55.617-10.649 55.617-23.784h-50.73c-6.902 0-17.146 3.547-22.882 7.923z" fill="#417fa5"/></g></g><g><path d="m273.896 236.663v87.33c0 7.784 6.312 14.096 14.096 14.096h156.281c7.784 0 14.096-6.312 14.096-14.096v-87.33c0-2.546-.676-4.933-1.863-6.995-2.42-4.243-6.995-7.101-12.233-7.101h-156.28c-7.785-.001-14.097 6.312-14.097 14.096z" fill="#fff"/></g><path d="m359.948 340.077h12.368c2.563 0 4.641 2.078 4.641 4.641 0 2.563-2.078 4.641-4.641 4.641h-12.368c-2.563 0-4.641-2.078-4.641-4.641-.001-2.563 2.077-4.641 4.641-4.641z" fill="#2e3140"/><g><g><g fill="#2e3140"><path d="m386.23 362.35h17.146l.265-.206 4.343-3.315c.763-.577.351-1.79-.603-1.79h-17.14l-.265.206-3.216 2.453h-.007l-1.127.862c-.755.577-.344 1.79.604 1.79z"/><path d="m399.053 373.735h16.437l.259-.199c.007 0 .007-.007.013-.007l6.219-4.747c.762-.577.351-1.79-.603-1.79h-16.437l-.265.205-5.099 3.885-1.127.862c-.756.584-.345 1.791.603 1.791z"/><path d="m358.495 362.35h17.14l.265-.206 4.343-3.315c.762-.577.351-1.79-.603-1.79h-17.14l-.265.206-3.216 2.453c-.022.019-1.263.953-1.227.941-.624.604-.212 1.711.703 1.711z"/><path d="m303.011 362.35h17.14l.265-.206 4.35-3.315c.756-.577.345-1.79-.603-1.79h-17.146l-.265.206-3.216 2.453-1.127.862c-.764.577-.353 1.79.602 1.79z"/><path d="m330.753 362.35h17.14l.265-.206 4.35-3.315c.74-.553.362-1.794-.61-1.79h-17.14l-.265.206-3.216 2.453-1.127.862c-.763.577-.352 1.79.603 1.79z"/><path d="m354.629 386.472h17.14l.239-.186c.016.022 8.006-6.124 8.023-6.12.756-.577.345-1.79-.61-1.79h-17.14l-.265.206-6.863 5.238h-.007c-.023.019-1.254.952-1.22.942-.623.609-.212 1.71.703 1.71z"/><path d="m271.403 386.472h17.14l.199-.152c.007 0 .007-.007.013-.007.526-.385 7.806-5.965 8.049-6.146.763-.577.351-1.79-.603-1.79h-17.14l-.259.199c-.007 0-.007.007-.013.007l-6.863 5.238-1.127.862c-.762.582-.351 1.789.604 1.789z"/><path d="m326.887 386.472h17.14l.239-.186c.016.022 8.006-6.124 8.023-6.12.756-.577.351-1.79-.603-1.79h-17.14l-.259.199c-.007 0-.007.007-.013.007l-6.863 5.238-1.127.862c-.763.583-.352 1.79.603 1.79z"/><path d="m299.145 386.472h17.14l.239-.186c.016.022 8.006-6.124 8.023-6.12.756-.577.351-1.79-.603-1.79h-17.14l-.259.199c-.007 0-.007.007-.013.007l-6.863 5.238-1.127.862c-.763.583-.352 1.79.603 1.79z"/><path d="m413.972 362.35h16.304c.099-.093.192-.186.279-.279.25-.231.462-.498.676-.756v-.007c2.484-3.154-.95-4.379-3.813-4.27h-9.435l-.259.199c-.007 0-.007.007-.013.007l-3.216 2.453-1.127.862c-.755.578-.351 1.791.604 1.791z"/><path d="m382.364 386.472h6.491c6.322-.218 13.027-2.589 18.207-6.305.762-.577.351-1.79-.603-1.79h-16.437l-.265.206-6.869 5.238-1.127.862c-.756.582-.345 1.789.603 1.789z"/><path d="m277.059 362.35h15.35l.259-.199c.007 0 .007-.007.013-.007l4.343-3.315c.756-.577.351-1.79-.603-1.79-2.333.048-7.534-.168-9.767.278-3.455.549-6.834 1.654-10.005 3.13-.976.451-.664 1.903.41 1.903z"/><path d="m246.704 384.35c.035.52.349.964.763 1.26 0 0 .007 0 .007.007 1.134.749 2.563.83 3.892.855h9.435l.199-.152c.007 0 .007-.007.013-.007.526-.385 7.806-5.965 8.049-6.146.762-.577.351-1.79-.603-1.79h-16.437c-1.92 1.517-5.513 3.786-5.318 5.973z"/><path d="m371.318 373.735h17.14l.265-.206 6.226-4.747c.033-.027.066-.053.093-.08.623-.603.212-1.711-.703-1.711h-17.14l-.265.205-5.092 3.885h-.007c-.022.019-1.255.953-1.22.942-.623.611-.212 1.712.703 1.712z"/><path d="m288.092 373.735h17.14l.259-.199c.007 0 .007-.007.013-.007l6.219-4.747c.763-.577.351-1.79-.603-1.79h-17.14l-.259.199c-.007 0-.007.007-.013.007l-5.092 3.885-1.127.862c-.763.583-.352 1.79.603 1.79z"/><path d="m343.576 373.735h17.14l.265-.206 6.226-4.747c.756-.577.345-1.79-.61-1.79h-17.14l-.265.205-5.092 3.885-1.127.862c-.763.584-.352 1.791.603 1.791z"/><path d="m315.834 373.735h17.14l.265-.206 6.226-4.747c.756-.577.351-1.79-.603-1.79h-17.14l-.259.199c-.007 0-.007.007-.013.007l-5.092 3.885-1.127.862c-.763.583-.352 1.79.603 1.79z"/><path d="m261.06 373.735h16.43l.259-.199c.007 0 .007-.007.013-.007l6.219-4.747c.762-.577.351-1.79-.603-1.79h-16.437l-.265.205-5.099 3.885-1.127.862c-.756.584-.345 1.791.61 1.791z"/></g><g fill="#3e4e60"><path d="m386.76 359.698h13.626c.219 0 .431-.073.603-.206l3.216-2.453h-13.964l-.265.206z"/><path d="m399.577 371.083h12.923c.219 0 .431-.073.61-.206l5.092-3.885h-13.261l-.265.205z"/><path d="m359.018 359.698h13.626c.219 0 .431-.073.603-.206l3.216-2.453h-13.964l-.265.206z"/><path d="m303.534 359.698h13.626c.219 0 .431-.073.603-.206l3.216-2.453h-13.964l-.265.206z"/><path d="m331.276 359.698h13.626c.219 0 .431-.073.603-.206l3.216-2.453h-13.964l-.265.206z"/><path d="m355.153 383.82h13.626c.219 0 .431-.066.603-.199l6.869-5.245h-13.97l-.265.206z"/><path d="m271.927 383.82h13.626c.219 0 .431-.066.61-.199l6.863-5.245h-13.964l-.259.199c-.007 0-.007.007-.013.007z"/><path d="m327.411 383.82h13.626c.219 0 .431-.066.603-.199l6.869-5.245h-13.964l-.259.199c-.007 0-.007.007-.013.007z"/><path d="m299.669 383.82h13.626c.219 0 .431-.066.603-.199l6.869-5.245h-13.964l-.259.199c-.007 0-.007.007-.013.007z"/><path d="m414.496 359.698h12.717c1.08-.092 1.982-1.935 2.142-2.513-1.165-.287-9.988-.092-11.371-.146l-.259.199c-.007 0-.007.007-.013.007z"/><path d="m382.888 383.82h3.315c5.186-.002 12.474-2.469 16.981-5.444h-13.161l-.265.206z"/><path d="m278.345 359.698h11.073c.219 0 .431-.073.61-.206l3.216-2.453c-.705.013-3.554-.028-4.197.027-3.68.214-7.291 1.256-10.702 2.632z"/><path d="m246.764 383.674c1.17.28 9.663.097 11.046.146.219 0 .431-.066.61-.199l6.863-5.245h-13.261c-1.686 1.258-5.052 3.684-5.258 5.298z"/><path d="m371.842 371.083h13.626c.219 0 .431-.073.603-.206l5.099-3.885h-13.97l-.265.205z"/><path d="m288.616 371.083h13.626c.219 0 .431-.073.61-.206l5.092-3.885h-13.964l-.259.199c-.007 0-.007.007-.013.007z"/><path d="m344.1 371.083h13.626c.219 0 .431-.073.603-.206l5.099-3.885h-13.97l-.265.205z"/><path d="m316.358 371.083h13.626c.219 0 .431-.073.603-.206l5.099-3.885h-13.964l-.259.199c-.007 0-.007.007-.013.007z"/><path d="m261.577 371.083h12.923c.219 0 .431-.073.61-.206l5.092-3.885h-13.261l-.265.205z"/></g></g><g><path d="m276.853 401.828h58.129c2.321 0 5.769-1.194 7.698-2.672 1.94-1.465 7.321-5.593 9.316-7.108 1.929-1.472 1.611-2.665-.71-2.665h-58.129c-2.321 0-5.769 1.193-7.698 2.665l-9.322 7.108c-1.555 1.111-1.984 2.673.716 2.672z" fill="#3e4e60"/><path d="m276.853 401.828h58.129c2.321 0 5.769-1.194 7.698-2.672l2.871-2.188c.351-.816-.298-1.366-1.883-1.366h-58.123c-2.327 0-5.775 1.194-7.705 2.665l-2.864 2.188c-.357.816.299 1.373 1.877 1.373z" fill="#2e3140"/></g></g><g fill="#417fa5"><path d="m299.908 222.567h42.799c1.831 0 3.315-1.484 3.315-3.315 0-1.831-1.484-3.315-3.315-3.315h-42.799c-1.831 0-3.315 1.484-3.315 3.315 0 1.831 1.485 3.315 3.315 3.315z"/><path d="m219.689 398.744h41.901c2.314 0 4.191 1.876 4.191 4.191 0 2.314-1.876 4.191-4.191 4.191h-41.901c-2.314 0-4.191-1.876-4.191-4.191.001-2.314 1.877-4.191 4.191-4.191z"/></g></g><g><g><g><g><path d="m427.678 313.833h-122.492c-1.487 0-2.692-1.205-2.692-2.692s1.205-2.692 2.692-2.692h122.492c1.487 0 2.692 1.205 2.692 2.692s-1.205 2.692-2.692 2.692z" fill="#dd5e26"/></g><g fill="#ea792e"><circle cx="305.186" cy="311.141" r="9.163"/><circle cx="427.678" cy="311.141" r="9.163"/></g></g><g><path d="m391.616 313.833h-37.351c-21.469 0-38.936-17.467-38.936-38.936v-16.676c0-1.487 1.205-2.692 2.692-2.692s2.692 1.205 2.692 2.692v16.676c0 18.501 15.052 33.553 33.552 33.553h37.351c1.487 0 2.692 1.205 2.692 2.692s-1.205 2.691-2.692 2.691z" fill="#f39e22"/></g><g fill="#f9c744"><path d="m322.396 249.058h-8.751c-2.644 0-4.787 2.143-4.787 4.787v8.751c0 2.644 2.143 4.787 4.787 4.787h8.751c2.644 0 4.787-2.143 4.787-4.787v-8.751c0-2.643-2.144-4.787-4.787-4.787z"/><path d="m395.992 301.978h-8.751c-2.644 0-4.787 2.143-4.787 4.787v8.751c0 2.644 2.143 4.787 4.787 4.787h8.751c2.644 0 4.787-2.143 4.787-4.787v-8.751c0-2.643-2.144-4.787-4.787-4.787z"/></g></g><g><g><path d="m392.899 248.362 4.089-2.361c2.611-1.507 5.949-.613 7.456 1.998l9.448 16.364c1.507 2.611.613 5.949-1.998 7.456l-4.089 2.361c-2.611 1.507-5.949.613-7.456-1.998l-9.448-16.364c-1.507-2.611-.613-5.949 1.998-7.456z" fill="#a583bb"/><path d="m392.899 248.362 4.089-2.361c2.611-1.507 5.949-.613 7.456 1.998l4.721 8.177-13.542 7.819-4.721-8.177c-1.508-2.611-.614-5.949 1.997-7.456z" fill="#c2aacf"/><path d="m395.267 251.333c1.675-.967 3.812-.39 4.779 1.285l7.641 13.235c.485.84.587 1.792.351 2.658-.231.863-.788 1.639-1.628 2.123-1.675.967-3.817.393-4.784-1.282l-7.641-13.235c-.485-.84-.582-1.795-.351-2.658s.793-1.642 1.633-2.126z" fill="#c2aacf"/><path d="m395.267 251.333c1.675-.967 3.812-.39 4.779 1.285l3.823 6.622-6.061 3.499-3.823-6.622c-.485-.84-.582-1.795-.351-2.658s.793-1.642 1.633-2.126z" fill="#decee5"/></g><g><path d="m373.797 254.215 13.629.942c2.019.139 3.833 1.274 4.844 3.026l6.713 11.627c1.011 1.752 1.087 3.889.196 5.703l-5.998 12.274c-.82 1.683-2.342 2.914-4.155 3.365l-33.517 8.352c-1.695.422-3.475-.444-4.17-2.103-.704-1.685.065-3.633 1.644-4.545l19.718-11.384c1.003-.579 2.196-.762 3.321-.465 1.711.458 3.596.266 5.256-.693 3.326-1.92 4.463-6.179 2.543-9.504-.047-.082-.091-.158-.14-.232-1.913-3.036-5.975-4.12-9.145-2.43-1.764.935-2.945 2.513-3.432 4.285-.315 1.129-1.056 2.094-2.073 2.681l-19.718 11.384c-1.579.912-3.653.599-4.761-.854-1.086-1.427-.946-3.401.267-4.658l23.992-24.851c1.294-1.343 3.121-2.046 4.986-1.92z" fill="#a583bb"/><path d="m373.797 254.215 5.472.379 8.157.563c2.019.139 3.833 1.274 4.844 3.026l3.355 5.811-11.805 6.816c-.047-.082-.091-.158-.14-.232-1.913-3.036-5.975-4.12-9.145-2.43-1.764.935-2.945 2.513-3.432 4.285-.315 1.129-1.056 2.094-2.073 2.681l-19.752 11.404c-1.573.889-3.625.57-4.727-.873-1.086-1.427-.946-3.401.267-4.658l23.992-24.851c1.295-1.344 3.122-2.047 4.987-1.921z" fill="#c2aacf"/><path d="m373.797 254.215 5.472.379c-.17.725-.533 1.415-1.083 1.982l-28.75 29.786c-.051.055-.105.106-.159.156-1.573.889-3.625.57-4.727-.873-1.086-1.427-.946-3.401.267-4.658l23.992-24.851c1.296-1.344 3.123-2.047 4.988-1.921z" fill="#decee5"/><path d="m393.182 287.793 2.408-4.928c-.713-.215-1.492-.246-2.257-.053l-40.17 10.005c-.073.017-.144.039-.215.06-1.556.918-2.306 2.854-1.607 4.53.693 1.654 2.472 2.52 4.167 2.098l33.517-8.352c1.812-.452 3.335-1.683 4.157-3.36z" fill="#c2aacf"/></g></g></g></g></g></svg>