<svg id="Capa_1" enable-background="new 0 0 512 512" height="512" viewBox="0 0 512 512" width="512" xmlns="http://www.w3.org/2000/svg"><g><path d="m497 123h-482c-8.284 0-15 6.716-15 15v326c0 8.284 6.716 15 15 15h482c8.284 0 15-6.716 15-15v-326c0-8.284-6.716-15-15-15z" fill="#ecf9fd"/><path d="m512 464v-326h-256v341h241c8.284 0 15-6.716 15-15z" fill="#d9f3fc"/><path d="m407 33h-392c-8.284 0-15 6.716-15 15v90h407z" fill="#8dc2eb"/><path d="m256 33h151v105h-151z" fill="#5e9ff6"/><path d="m512 138v-90c0-8.284-6.716-15-15-15h-90v105z" fill="#3d6def"/><g fill="#28487a"><path d="m447 316h-126c-8.284 0-15-6.716-15-15s6.716-15 15-15h126c8.284 0 15 6.716 15 15s-6.716 15-15 15z"/><path d="m447 256h-96c-8.284 0-15-6.716-15-15s6.716-15 15-15h96c8.284 0 15 6.716 15 15s-6.716 15-15 15z"/><path d="m447 376h-126c-8.284 0-15-6.716-15-15s6.716-15 15-15h126c8.284 0 15 6.716 15 15s-6.716 15-15 15z"/></g><path d="m191 226h-126c-8.284 0-15 6.716-15 15v120c0 8.284 6.716 15 15 15h126c8.284 0 15-6.716 15-15v-120c0-8.284-6.716-15-15-15z" fill="#f37"/></g></svg>