<svg xmlns="http://www.w3.org/2000/svg" viewBox="0 0 619.3 565.63"><defs><style>.cls-1,.cls-2{fill:#4d4d4d;}.cls-1{opacity:0.17;}.cls-3{fill:#e2ebc6;}.cls-4{fill:#e5e5e5;}.cls-5{fill:#cbcbcb;}.cls-18,.cls-6,.cls-9{fill:#63b68f;}.cls-17,.cls-7{fill:#fff;}.cls-8{fill:#bcdae2;}.cls-9{stroke:#603813;stroke-width:0.1px;}.cls-17,.cls-18,.cls-9{stroke-miterlimit:10;}.cls-10{fill:#bd6b56;}.cls-11{fill:#e5d5ba;}.cls-12{opacity:0.2;}.cls-13{fill:#dbe1e6;}.cls-14{fill:#424656;}.cls-15{fill:#ddb471;}.cls-16{opacity:0.15;}.cls-17{stroke:#000;stroke-width:0.25px;}.cls-18{stroke:#fff;stroke-width:10px;}</style></defs><title>wp6</title><g id="katman_2" data-name="katman 2"><g id="Layer_1" data-name="Layer 1"><ellipse class="cls-1" cx="82.85" cy="546.96" rx="82.85" ry="11.95"/><ellipse class="cls-1" cx="358.49" cy="532.75" rx="170.52" ry="13.69"/><ellipse class="cls-1" cx="522.87" cy="557.95" rx="96.43" ry="7.68"/><path class="cls-2" d="M592.65,411.88l-.23-271.19A12.77,12.77,0,0,0,579.6,128l-440.29.31a12.82,12.82,0,0,0-12.74,12.83l.24,271.19Z"/><rect class="cls-3" x="148.3" y="150" width="422.62" height="237.97"/><path class="cls-4" d="M440.37,523.13A70.37,70.37,0,0,0,433.1,520c-4.15-1.56-9.15-3.52-12.12-4.92-5.16-2.51-5.63-4.07-7.5-12.51-2.12-9.23-4.07-28.69-4.93-37.13l-97.56.07c-.78,8.52-2.74,27.91-4.85,37.14-1.95,8.44-2.34,10.08-7.5,12.5-2.9,1.41-7.82,3.37-12,4.93h0l-7.2,2.66s-3.12,1.72,1.88,2l156.82-.15C443,524.69,440.37,523.13,440.37,523.13Z"/><path class="cls-5" d="M409.57,475.68c-.47-4.07-.78-7.67-1-10.24l-97.56.07c-.24,2.58-.63,6.26-1,10.24Z"/><path class="cls-4" d="M125.87,412.74V452a13.69,13.69,0,0,0,13.68,13.68h0l440.36-.31a13.65,13.65,0,0,0,13.68-13.68h0V412.43Z"/><path class="cls-6" d="M196.17,283.63H339.64a0,0,0,0,1,0,0v56.46a12,12,0,0,1-12,12H194.29a12,12,0,0,1-12-12V297.51A13.88,13.88,0,0,1,196.17,283.63Z" transform="translate(521.92 635.72) rotate(-180)"/><rect class="cls-7" x="191.59" y="297" width="131.51" height="5.81" rx="2.91" transform="translate(514.69 599.81) rotate(180)"/><rect class="cls-7" x="191.59" y="312.99" width="131.51" height="5.81" rx="2.91" transform="translate(514.69 631.8) rotate(-180)"/><rect class="cls-7" x="190.36" y="328.99" width="94.13" height="5.81" rx="2.91" transform="translate(474.85 663.79) rotate(180)"/><path class="cls-2" d="M190.67,178.26H324a12,12,0,0,1,12,12v56.46a0,0,0,0,1,0,0H192.55a13.88,13.88,0,0,1-13.88-13.88V190.26A12,12,0,0,1,190.67,178.26Z"/><rect class="cls-7" x="187.97" y="191.63" width="131.51" height="5.81" rx="2.91" transform="translate(507.45 389.06) rotate(180)"/><rect class="cls-7" x="187.97" y="207.62" width="131.51" height="5.81" rx="2.91" transform="translate(507.45 421.05) rotate(180)"/><rect class="cls-7" x="186.74" y="223.61" width="94.13" height="5.81" rx="2.91" transform="translate(467.62 453.04) rotate(-180)"/><rect class="cls-7" x="129.45" y="72.08" width="137.29" height="11.23" rx="2.41" transform="translate(396.18 155.4) rotate(180)"/><rect class="cls-7" x="160.6" y="91.14" width="85.38" height="11.23" rx="2.41" transform="translate(406.57 193.5) rotate(180)"/><rect class="cls-6" x="382.73" y="292.29" width="130.39" height="8.77" rx="1.76"/><rect class="cls-6" x="382.73" y="309.09" width="130.39" height="8.77" rx="1.76"/><rect class="cls-6" x="382.73" y="325.88" width="43.71" height="8.77" rx="1.76"/><circle class="cls-8" cx="286.16" cy="73.57" r="73.57"/><path class="cls-9" d="M331.25,15.46C313,12.78,274.3,9,272.44,24.82c-1.24,10.6,12.48,6.54,13.72,14s-2.18,13.1,9.66,14S319.2,56,312.65,63.47s-21.8,9-26.49,17.14,4.36,17.92,5,25,4.06,22.17,23.69,24.56c-.93-10.91,4.06-18.4,4.68-30.55S312,79,319.51,73.57s9.45,3.86,19.53,0c9.52-3.65,3.39-13.58,19.74-11.78A73.46,73.46,0,0,0,331.25,15.46Z"/><path class="cls-9" d="M259,128.3c-.62-6.23,9.35-13.09,9.66-22.68s-10.91-12.54-15-20.64,4.36-28.68,5.61-40.21S248.44,28.56,240,29.49a23.44,23.44,0,0,1-11.25-1.92A73.49,73.49,0,0,0,226,115.84a11.27,11.27,0,0,1,7.19-7.48C243,104.87,254.05,124.25,259,128.3Z"/><rect class="cls-10" x="499.22" y="513.07" width="48.94" height="18.34"/><path class="cls-6" d="M523.69,414.2c-18.49,0-30.15,3.43-30.15,3.43l3.89,65.46h52.51l3.9-65.46S542.18,414.2,523.69,414.2Z"/><path class="cls-6" d="M510.38,414.82l13.31,57.49L537,414.82c-3.89-.37-8.34-.62-13.31-.62S514.27,414.45,510.38,414.82Z"/><polygon class="cls-6" points="523.69 472.31 510.38 414.82 500.29 427.87 511.99 441.27 503.93 450.83 523.69 472.31"/><polygon class="cls-6" points="523.69 472.31 537 414.82 547.09 427.87 535.39 441.27 543.45 450.83 523.69 472.31"/><path class="cls-6" d="M493.54,417.63s7.35,13.94,1.65,27.67-23.57,37.79-23.57,37.79l32,9v15S461,508.5,452.5,493.12,482.37,420.75,493.54,417.63Z"/><path class="cls-6" d="M554,417.63s-7.35,13.94-1.65,27.67S576,483.09,576,483.09l-32,9v15s42.6,1.46,51.12-13.92S565.2,420.75,554,417.63Z"/><path class="cls-10" d="M538.89,539.87l-4.78,16S418.46,550,432.7,514.52C446.13,481.09,538.89,539.87,538.89,539.87Z"/><path class="cls-11" d="M513.57,540.81l-10.91,2.71s-8.13-2-18.79-4.06-19.76-2.43-21.62,2.7,3.23,17.25,14.24,16.62c10.27-.59,13.78,2.67,21.2,1.67s9.25-5.61,9.25-5.61l10.62-1.91Z"/><path class="cls-2" d="M497.69,560.45c-7.42,1-10.93-2.26-21.2-1.67-11,.63-16.09-11.49-14.24-16.62s10.92-4.78,21.62-2.7,18.79,4.06,18.79,4.06-.19,5.29,4.28,11.32C506.94,554.84,505.1,559.45,497.69,560.45Z"/><path class="cls-11" d="M533.81,540.81l10.91,2.71s8.13-2,18.79-4.06,19.76-2.43,21.62,2.7-3.23,17.25-14.24,16.62c-10.27-.59-13.78,2.67-21.2,1.67s-9.25-5.61-9.25-5.61l-10.62-1.91Z"/><path class="cls-2" d="M549.69,560.45c7.42,1,10.93-2.26,21.2-1.67,11,.63,16.09-11.49,14.24-16.62s-10.92-4.78-21.62-2.7-18.79,4.06-18.79,4.06.19,5.29-4.28,11.32C540.44,554.84,542.27,559.45,549.69,560.45Z"/><path class="cls-10" d="M508.49,539.87l4.78,16S628.92,550,614.68,514.52C601.25,481.09,508.49,539.87,508.49,539.87Z"/><path class="cls-12" d="M561.29,524H486.08a3.73,3.73,0,0,1-3.68-3.09l-8.89-50.5A3.74,3.74,0,0,1,477.2,466h93a3.74,3.74,0,0,1,3.69,4.39L565,520.93A3.74,3.74,0,0,1,561.29,524Z"/><path class="cls-13" d="M562.06,520.34H485.32a3.74,3.74,0,0,1-3.69-3.09l-8.89-50.5a3.75,3.75,0,0,1,3.69-4.4H571a3.75,3.75,0,0,1,3.69,4.4l-8.89,50.5A3.74,3.74,0,0,1,562.06,520.34Z"/><circle class="cls-7" cx="523.69" cy="489.34" r="9.78"/><path class="cls-14" d="M509.25,391.79l-5.43-12.34s-10.28-.83-10.28-8.42c0-10.8,16.21-17.35,16.21-17.35s-1.63-2.05.41-4.88c3.74-5.2,20.89,3,20.89,3a4.32,4.32,0,0,1,2.6-4.16c5.09-2,8.72,9.56,8.93,14.45,0,0,7.68,3.78,8,8.66.1,1.55-5.4-1.81-5.4-1.81s3.7,10.88-7.09,22.84Z"/><path class="cls-11" d="M514.34,399.08v15.67c0,.66,4.19,1.2,9.35,1.2s9.35-.54,9.35-1.2V399.08Z"/><path class="cls-11" d="M514.34,405.55c3.4,2.88,10.24,7.53,18.7,7.17V399.08h-18.7Z"/><path class="cls-11" d="M534.48,370.41c-2.6,2.91-9.56,4.57-13.51-2.7-5.45,7-10.24,9-13.2,9.54.52,6.43,1.3,14.73,2.19,18.72,1.55,7,11.06,9.66,13.71,9.66S535.83,403,537.39,396c.9-4.09,1.7-12.72,2.22-19.22C537.53,375.42,535,373.25,534.48,370.41Z"/><path class="cls-10" d="M106.79,216.29c-4.37-4-3.74-11.85-4.06-16.06s-1.55-9.81-6.85-14-4.83-9-7.33-16.37S79.36,157.53,70,157.53s-16,5-18.54,12.31-2,12.16-7.33,16.37-6.54,9.82-6.85,14,.31,12-4.06,16.06-8.41,12.15-1.4,16.05,38.18,7,38.18,7,31.18-3.11,38.19-7S111.15,220.34,106.79,216.29Z"/><path class="cls-11" d="M44.44,237.38l-28,22.86L39.46,290c2.28,3.54,2.28,9.79,2.28,9.79l-4.57,14.53s-7-2.29-6.21-8.52-1.48-16.21-1.48-16.21-27.22-12.89-27-28.89,43.77-45.3,43.77-45.3S52.34,227.4,44.44,237.38Z"/><path class="cls-11" d="M118.39,500.57l3.11,16.83s19.17,18.39,30.08,27.74c0,0-5,6.39-16.59,1.72s-12.39-7.49-20.81-8.89-10.13-6.39-10.13-6.39a21.22,21.22,0,0,0,3.12-16.05c-1.87-9.51-3.12-15-3.12-15Z"/><path class="cls-11" d="M44.22,500.57l2.11,16.83s-19.17,18.39-30.08,27.74c0,0,5,6.39,16.59,1.72s12.39-7.49,20.81-8.89,10.13-6.39,10.13-6.39A70.25,70.25,0,0,1,60,515.11c-1.12-10.43-1.46-14.54-1.46-14.54Z"/><path class="cls-2" d="M32.84,546.86c11.62-4.68,12.39-7.49,20.81-8.89s10.13-6.39,10.13-6.39a66.43,66.43,0,0,1-3-11.17A72.11,72.11,0,0,1,43.58,520c-5.68,5.4-18.94,17.92-27.33,25.12C16.25,545.14,21.23,551.53,32.84,546.86Z"/><path class="cls-2" d="M151.58,545.14c-8.24-7.06-21.19-19.28-27-24.83a73,73,0,0,1-17,.41,20.79,20.79,0,0,1-3.51,10.86s1.71,5,10.13,6.39,9.19,4.21,20.81,8.89S151.58,545.14,151.58,545.14Z"/><path class="cls-15" d="M95.6,288.29,125.1,504H95.6s-7-47.2-7.18-75.43c-.11-22.13-22.32-61.72-22.32-103.28V504H43.54s-10-39.9-7.81-66.91S31,378.89,31,345.64,45.42,285,45.42,285Z"/><path class="cls-16" d="M55.24,285.62,45.42,285a133.12,133.12,0,0,0-8.64,22.4C47.42,306,53,292.78,55.24,285.62Z"/><path class="cls-11" d="M94.17,217.06l33.5,38.46,34.76-21.93s7.17-9.2,15.58-8l-3.74,2.8s11.22-3.11,11.85-1.24-4.21,10.13-10.45,11.69a43.55,43.55,0,0,1-11.37,1.3s-23.54,28.88-36.94,28.88S89,239.35,89,239.35Z"/><path class="cls-2" d="M93.25,255.25c3.1-13.51,3.45-24,1.26-37.15a3.9,3.9,0,0,0-1.9-2.75c-2.41-1.36-7.64-3.59-16.41-4-4.22-.18-6.77,0-6.77,0s-2.56-.16-6.78,0c-8.76.38-14,2.61-16.41,4a3.88,3.88,0,0,0-1.89,2.75c-2.2,13.12-1.84,23.64,1.26,37.15,3.86,16.83-3.87,35.33-3.87,35.33s4.64,8.74,12.57,9.16,15.12-8.33,15.12-8.33,7.19,8.74,15.12,8.33,12.56-9.16,12.56-9.16S89.38,272.08,93.25,255.25Z"/><rect class="cls-2" x="68.85" y="211.36" width="1.16" height="40.95"/><circle class="cls-2" cx="73.86" cy="224.15" r="2.25"/><circle class="cls-2" cx="73.86" cy="232.47" r="2.25"/><circle class="cls-2" cx="73.86" cy="240.79" r="2.25"/><path class="cls-11" d="M62.14,197.74v13.64c0,.5,3.26.91,7.29.91s7.28-.41,7.28-.91V197.74Z"/><path class="cls-11" d="M76.71,211.21V197.74H62.14v5.89A31.37,31.37,0,0,0,76.71,211.21Z"/><path class="cls-11" d="M79.67,175a12.13,12.13,0,0,1-10.24,5.35,13.48,13.48,0,0,0,4.94-8.08c-7.94,7-15.5,7.33-19.09,7,.44,5.26.81,12.18,1.71,16.24,1.25,5.61,9.51,8,12.55,8s11.3-2.34,12.54-8a110.72,110.72,0,0,0,1.49-13.42A11.9,11.9,0,0,1,79.67,175Z"/><path class="cls-16" d="M87,417.18l0,.05a56.91,56.91,0,0,1,1.48,11.33C88.56,456.79,95.6,504,95.6,504h16.84Z"/><path class="cls-15" d="M41.42,494.54c1.21,5.81,2.12,9.45,2.12,9.45H66.1v-9.45Z"/><path class="cls-15" d="M95.6,504h29.5l-1.29-9.45H94.27C95.06,500.37,95.6,504,95.6,504Z"/><path class="cls-17" d="M455.75,172.13a45.79,45.79,0,0,0-40.32,67.48L410,269.48l29.81-8.65a45.79,45.79,0,1,0,16-88.7Z"/><path class="cls-18" d="M456.76,177.69a39.38,39.38,0,0,0-34.68,58l-4.7,25.69L443,254a39.39,39.39,0,1,0,13.73-76.3Z"/><path class="cls-7" d="M468.38,205a8.17,8.17,0,0,1,1.48,4.92,7.22,7.22,0,0,1-1.49,4.75,7.73,7.73,0,0,1-2.46,1.83,7.21,7.21,0,0,1,3.72,2.85,8.48,8.48,0,0,1,1.26,4.72,9.42,9.42,0,0,1-1.44,5.14,8.93,8.93,0,0,1-2.28,2.53,8.82,8.82,0,0,1-3.64,1.62,22.47,22.47,0,0,1-4.56.44H444.45V201.61H460Q465.92,201.7,468.38,205Zm-17.5,2.17v7.1h7.83a6.4,6.4,0,0,0,3.41-.8,3,3,0,0,0,1.31-2.83,2.89,2.89,0,0,0-1.73-3,12,12,0,0,0-3.81-.5Zm0,12.44v8.59h7.82a7.61,7.61,0,0,0,3.27-.57q2.11-1,2.12-4a3.47,3.47,0,0,0-2.06-3.46,8.21,8.21,0,0,0-3.22-.54Z"/></g></g></svg>