<svg xmlns="http://www.w3.org/2000/svg" viewBox="0 0 684.11 613.59"><defs><style>.cls-1{fill:#7db8d2;}.cls-2{fill:#ddb471;}.cls-3,.cls-6{fill:#63b68f;}.cls-4{fill:#bd6b56;}.cls-5,.cls-7{fill:#fff;}.cls-5{stroke:#000;stroke-width:0.25px;}.cls-5,.cls-6{stroke-miterlimit:10;}.cls-6{stroke:#fff;stroke-width:10px;}.cls-8{fill:#315170;}.cls-9{fill:#e5d5ba;}.cls-10{fill:#58595b;}.cls-11,.cls-12{fill:#1d0b3a;}.cls-11{opacity:0.56;}.cls-12{opacity:0.15;}.cls-13{fill:#686fd2;}.cls-14{fill:#be7c60;}.cls-15{fill:#dbe1e6;}.cls-16{fill:#e3e8e5;}.cls-17{fill:#3b3ba3;opacity:0.27;}.cls-18{fill:#2d641f;}</style></defs><title>wp8</title><g id="katman_2" data-name="katman 2"><g id="Layer_1" data-name="Layer 1"><path class="cls-1" d="M566.9,78.1a32,32,0,0,0-8-11,34.49,34.49,0,0,0-11.1-6.56,35.8,35.8,0,0,0-24.82,0,34.39,34.39,0,0,0-11.1,6.56,32,32,0,0,0-8,11,36.71,36.71,0,0,0-3,15.34v17.49a36.51,36.51,0,0,0,3,15.44,32.35,32.35,0,0,0,8,10.9,34.18,34.18,0,0,0,11.1,6.55c.71.26,1.41.48,2.12.69v14.85l20.38-14.79c.78-.22,1.55-.47,2.32-.75a34.29,34.29,0,0,0,11.1-6.55,32.35,32.35,0,0,0,8-10.9,36.51,36.51,0,0,0,3-15.44V93.44A36.71,36.71,0,0,0,566.9,78.1Z"/><path class="cls-2" d="M527.81,11.91A19.44,19.44,0,0,0,523,5.28a20.72,20.72,0,0,0-6.68-3.94,21.52,21.52,0,0,0-15,0,20.72,20.72,0,0,0-6.68,3.94,19.44,19.44,0,0,0-4.8,6.63,22.16,22.16,0,0,0-1.82,9.23V31.67A22.07,22.07,0,0,0,489.9,41a19.54,19.54,0,0,0,4.8,6.56,20.75,20.75,0,0,0,6.68,3.95c.43.15.85.28,1.28.41v8.94l12.27-8.9c.47-.14.93-.29,1.4-.45A20.75,20.75,0,0,0,523,47.53a19.54,19.54,0,0,0,4.8-6.56,22.07,22.07,0,0,0,1.82-9.3V21.14A22.16,22.16,0,0,0,527.81,11.91Z"/><path class="cls-3" d="M493.28,62.88a12.39,12.39,0,0,0-3.1-4.27,13.13,13.13,0,0,0-4.32-2.55,13.81,13.81,0,0,0-9.65,0,13.13,13.13,0,0,0-4.32,2.55,12.52,12.52,0,0,0-3.1,4.27,14.39,14.39,0,0,0-1.18,6v6.81a14.27,14.27,0,0,0,1.18,6,12.59,12.59,0,0,0,3.1,4.24,13.3,13.3,0,0,0,4.32,2.55c.27.1.55.18.82.26v5.78l8-5.76c.29-.09.59-.17.88-.28a13.3,13.3,0,0,0,4.32-2.55,12.46,12.46,0,0,0,3.1-4.24,14.12,14.12,0,0,0,1.18-6V68.85A14.23,14.23,0,0,0,493.28,62.88Z"/><path class="cls-4" d="M476.87,29.37A7.64,7.64,0,0,0,475,26.73a8.36,8.36,0,0,0-2.68-1.58,8.52,8.52,0,0,0-6,0,8.21,8.21,0,0,0-2.67,1.58,7.54,7.54,0,0,0-1.92,2.64,8.79,8.79,0,0,0-.73,3.7v4.21a8.71,8.71,0,0,0,.73,3.71,7.59,7.59,0,0,0,1.92,2.63,8.39,8.39,0,0,0,2.67,1.58l.51.16v3.58l4.92-3.57.54-.17A8.54,8.54,0,0,0,475,43.62,7.7,7.7,0,0,0,476.87,41a8.71,8.71,0,0,0,.73-3.71V33.07A8.79,8.79,0,0,0,476.87,29.37Z"/><path class="cls-5" d="M160.58,69A60.83,60.83,0,0,0,107,158.67l-7.26,39.67,39.61-11.48A60.83,60.83,0,1,0,160.58,69Z"/><path class="cls-6" d="M161.92,76.4a52.33,52.33,0,0,0-46.07,77.11l-6.24,34.13,34.07-9.88A52.32,52.32,0,1,0,161.92,76.4Z"/><path class="cls-7" d="M177.35,112.74a10.9,10.9,0,0,1,2,6.54,9.54,9.54,0,0,1-2,6.3,10.32,10.32,0,0,1-3.27,2.44,9.55,9.55,0,0,1,5,3.78,11.32,11.32,0,0,1,1.66,6.27,12.54,12.54,0,0,1-1.9,6.83,11.78,11.78,0,0,1-7.87,5.52,30.23,30.23,0,0,1-6,.58h-19.3V108.18h20.7Q174.09,108.3,177.35,112.74Zm-23.25,2.88v9.44h10.41A8.68,8.68,0,0,0,169,124a4,4,0,0,0,1.74-3.76q0-3-2.3-3.95a16,16,0,0,0-5.06-.67Zm0,16.52v11.42h10.4a10.19,10.19,0,0,0,4.34-.75c1.87-.93,2.81-2.72,2.81-5.35a4.59,4.59,0,0,0-2.73-4.59,10.89,10.89,0,0,0-4.28-.73Z"/><rect class="cls-8" x="178.25" y="476.87" width="8.75" height="91.85" rx="1.37" transform="translate(192.9 -30.88) rotate(20.32)"/><rect class="cls-8" x="250.41" y="476.87" width="8.75" height="91.85" rx="1.37" transform="translate(675.23 924.6) rotate(159.68)"/><rect class="cls-8" x="169.11" y="456.09" width="99.18" height="26.24" rx="4.1"/><polygon class="cls-9" points="246.08 531.33 241.53 552.54 256.82 554.36 261.17 533.47 246.08 531.33"/><path class="cls-9" d="M238.9,244.55c-5.29.55-19.57,2.22-31.68,12.78-4.09,3.56-6.7,5.94-7.53,10-1.84,8.85,6.68,18.21,14.31,22.46a19.81,19.81,0,0,1-.13,4.21,19.09,19.09,0,0,1-.4,2.12c-.16.67-.31,1.37-.47,2a14.93,14.93,0,0,0,.72,3.57,13.45,13.45,0,0,0,5.75,7.68A13.79,13.79,0,0,0,235.63,308c4.49-4,4.47-9.74,4.47-10.66a4.64,4.64,0,0,1-2.51-1.26,3.54,3.54,0,0,1-.57-.72,3.61,3.61,0,0,1-.78-2.19,11.06,11.06,0,0,0,1.69-.71,10.5,10.5,0,0,0,1.74-1.15l10.65-9.21q.38-9.24,1.24-18.85l.24-2.53q.47-8.09.94-16.17A67,67,0,0,0,238.9,244.55Z"/><polygon class="cls-9" points="276.18 523.69 271.62 544.91 286.91 546.72 291.27 525.83 276.18 523.69"/><path class="cls-10" d="M276.45,421.09H312s21.62-1.21,22.91,16.54S303.14,506.14,298,533.26l-4.33-.36-25.36-2.09,21.39-73.75-53.18.3a34.81,34.81,0,0,1-11.59-1.84c-10.35-3.59-26.15-8.74-17.54-37.25Z"/><path class="cls-10" d="M267.82,536.51l-29.69-2.45,23.81-77-53.18.31a35,35,0,0,1-11.6-1.84c-.28-.1-.55-.21-.84-.29-10.1-3.51-24.42-9-17.21-35.16.16-.59.35-1.19.53-1.8l20,.82,49.07,2h35.52s21.6-1.21,22.91,16.54S273,509.41,267.82,536.51Z"/><path class="cls-3" d="M257.67,369.87l0,.29-4.37,50.93-54.06,0-20.11-1L178,420l12.35-31.7.49-1.26,8.29-20.48,56,3.16Z"/><path class="cls-9" d="M375.1,372.83c-.28-2.83-4.94-5.6-6.73-7.5a13,13,0,0,0-4.56-3.28,28.89,28.89,0,0,0-7.95-2.77c-3.75-.59-7.56,1-11.24,1.55s-7.88-.37-10.32,3.3c-1.82,2.73-1.36,7.86,2.18,8.71,1.23.3,2.38-.21,3.66.12,1.9.5,3.15,2,5.26,2.2,4.11.43,7.55-2.66,11.53-2.52a11,11,0,0,1,5.31,2.09,13.42,13.42,0,0,0,6.34,2.35c1.55.11,5,.43,6.33-.52S375.48,374,375.1,372.83Z"/><path class="cls-3" d="M247.73,372.35c1.87-.61,3.8-.37,5.71-.44.88,0,1.87.31,2.59-.54-3.61-3.76-8.41-4.27-13.18-4.61-7.73-.55-15.54-.37-23.19-1.67-6.52-1.11-13.12-2.34-18.45-6.9a24.08,24.08,0,0,1-7-11c-.16-.47-.09-1.08-.75-1.1-.1,0-.22.73-.32,1.12,0,3.41,1.24,6.61,1.74,9.94.17,1.15,0,8.05,2.72,9a44.13,44.13,0,0,0,6,1.14c5.75,1.09,11.62,1.53,17.3,3.05a6.92,6.92,0,0,1,3.16,1.56c3.68.36,7.07-1.23,10.64-1.69C239.36,369.56,243.74,369.47,247.73,372.35Z"/><path class="cls-3" d="M212.6,298.09c-.37-.07-.77-.14-1.19-.19a14.06,14.06,0,0,0-2.29-.08c.15.75.4,1.83.76,3.13.83,3,1.32,5.16,2.75,7.08,4.2,5.65,10.07,7.13,17,6.28a13.12,13.12,0,0,0,7.74-3.19,16.64,16.64,0,0,0,2.6-3.89c1.38-2.39,2.07-3.62,2.11-5.05a7.06,7.06,0,0,0-2-4.84,6.71,6.71,0,0,0-1.69,1.91,6.3,6.3,0,0,0-.65,1.52c-1.73,6.34-4.71,8.59-11.4,8.62-2.58,0-5.08,0-7.47-1.37a8.92,8.92,0,0,1-4-4c-.37-.86-.25-1.15-.53-3.41-.32-2.62-1-6.35-1.36-6.33C212.86,294.31,212.68,295,212.6,298.09Z"/><path class="cls-3" d="M264.14,353.4c-1.22,1.94-2.37,3.94-3.55,5.92l-.12.06a3.48,3.48,0,0,0-1,.75s0,0,0,0a4.29,4.29,0,0,0-.88,1.86,30.4,30.4,0,0,0-.92,7,6.49,6.49,0,0,1,0,1.08v0a4.21,4.21,0,0,1-.08.53s0,0,0,0a1.54,1.54,0,0,1-1.47,1.06,5,5,0,0,1-2.43-1.36,13.38,13.38,0,0,0-3.41-1.78l-.15,0a14.06,14.06,0,0,0-2.35-.53l-.14,0a94.58,94.58,0,0,0-11.86-1,106.46,106.46,0,0,1-23.14-2.68c-7.25-1.8-13.38-5.15-17-12.09-.51-1-.8-2-1.29-3a5.58,5.58,0,0,0-1.2-1.68,2.63,2.63,0,0,0-.94.33,3.87,3.87,0,0,0-1.25,1.29c-2.43,3.82-5.12,7.45-7.72,11.17-1.26,1.86-1.08,2.43,1.23,2.88,2.94.55,5.92.81,8.84,1.51,1.47.35,6.15,1.18,9.25,1.65.43.06.86.12,1.29.21,5.47,1,11,1.43,16.44,2.88,1.47.38,3.31.38,3.82,2.41-2.86-.25-5.42.28-6.5,3.28a6.64,6.64,0,0,0,1.33,7,4.24,4.24,0,0,1-3.31,1.06c-2.1-.2-4.25-.25-6.37-.55-4.33-.61-8.74-.06-13.05-.61-11-1.43-22.09-1.82-33.16-2.43-6.23-.33-10.54-6.25-8.25-12.05.49-1.25.94-2.49,1.39-3.76a35.47,35.47,0,0,1,4.57-9.43c1.88-3.62,3.78-7.21,5.66-10.83.39-.83,1-2.22,1.79-3.9a188.77,188.77,0,0,1,16.57-28.42c6.08-8.66,7.88-9.74,8.84-10.27,5.37-2.86,13.17-3.15,15.7-3.15.49,0,.8,0,.82,0,.41,0,.75,0,1,0a13.34,13.34,0,0,0-.2,4.88,11.59,11.59,0,0,0,.63,2.33,13.16,13.16,0,0,0,5.84,6.47c3.61,2.21,7.74,2.56,12.11,2.19a12.75,12.75,0,0,0,9.33-5.76,13.4,13.4,0,0,0,1.29-10.64c4.8,1.06,9.59,2.1,14.37,3.17a49.1,49.1,0,0,0,.68,8.59c2.08,12.36,6.49,14.87,9.92,26.67C266.8,341.65,267.72,347.7,264.14,353.4Z"/><path class="cls-9" d="M258.27,381.83a.94.94,0,0,0-.13-.41c-1.27-2.76-3.95-4.24-5.91-6.37-.75-.82-1.55-1.61-2.29-2.46,0,0-8.46-4.91-13.25-4.43-4,.39-7.84,1.87-11.91,1.94-1,.07-2,0-3,.15a6.64,6.64,0,0,0-5.22,5,6.14,6.14,0,0,0,2.52,6.6l1.16-.07.15.15a1,1,0,0,0,1.31-.09,4,4,0,0,1,2.63.56c2.93,2.25,6.1,2.12,9.39.95,1.37-.49,2.75-.94,4.13-1.41,3.38-1.14,6.11.84,8.57,2.41,3.5,2.24,7.16,1.81,10.75,1.45C259.46,385.59,258.79,383.43,258.27,381.83Z"/><path class="cls-3" d="M341,360.77q-2.46,6-4.91,12.05c-31.5-.23-62.67-.07-63.48-.09a7.62,7.62,0,0,1-1.17,0c-3.84-3-9.62-9.94-11.9-12.7-.55-.69-.9-1.1-.94-1.14a.88.88,0,0,1,0-.33c.12-1.47,1-2.57,1.82-3.78,1.9-2.88,3.32-5.84,3.32-9.49,0-1.27-.06-2.47-.18-3.74a62,62,0,0,0-5.61-18.6c.1-2.21-2.6-7.09-2.6-7.09-1.71-3.1-1.71-6.23-1.71-9.27a24.28,24.28,0,0,1,.79-6.06,33.42,33.42,0,0,1,10.11,9.16c4.55,6.36,5,12.07,7.19,20a102.42,102.42,0,0,0,9.29,22.46Z"/><path class="cls-3" d="M210.91,302.75c-4.29,1.92-10.64.78-15.3,2.13-16.72,4.86-11.62,43.19-36.14,57.48a26.65,26.65,0,0,1-3,1.55,1.76,1.76,0,0,1-.3-.1,35.47,35.47,0,0,1,4.57-9.43c1.88-3.62,3.78-7.21,5.66-10.83.39-.83,1-2.22,1.79-3.9a188.77,188.77,0,0,1,16.57-28.42c6.08-8.66,7.88-9.74,8.84-10.27,5.37-2.86,13.17-3.15,15.7-3.15.49,0,.8,0,.82,0,.41,0,.75,0,1,0A13.34,13.34,0,0,0,210.91,302.75Z"/><path class="cls-11" d="M259.55,360a.28.28,0,0,0,0,.12s0,0,0,0a4.29,4.29,0,0,0-.88,1.86,30.4,30.4,0,0,0-.92,7,6.49,6.49,0,0,1,0,1.08v0a4.21,4.21,0,0,1-.08.53s0,0,0,0a1,1,0,0,1-.9,0,23.24,23.24,0,0,0-6.41-2.08l-.15,0c-.83-.19-1.67-.35-2.49-.55l-1.31-.37a10.39,10.39,0,0,1-2.16-.94,1.65,1.65,0,0,1-.88-2,2.53,2.53,0,0,1,1.31-1.27c1.49-.41,3-.61,4.57-1,3.41-.81,6.44-2.47,9.52-3.94a.88.88,0,0,0,0,.33S259,359.32,259.55,360Z"/><path class="cls-12" d="M202.84,407.49a107,107,0,0,0-3.21,11.6c-.14.65-.28,1.31-.41,2-2.28,11.5-2.73,24,1.13,34-1.41.1-2.74.14-4,.14-10.1-3.51-24.42-9-17.21-35.16L178,420l12.35-31.7C202.92,378.86,217,394.36,202.84,407.49Z"/><path class="cls-2" d="M267.23,289.27c-1.18-2.47-2.27-4.65-2.27-4.65-2.1-3.94-3.46-5.43-5-9.8-2.31-6.48,2.4-11.13,3.92-17,1.38-5.46.3-13.44-4-17.22-4.57-4-10.45-2.65-14.56-8s-5.51-9.91-12.37-11.89c-13.13-3.75-28.47,2.86-36.8,13.4a25,25,0,0,0-5.64,12.15c-1.08,7.13-.36,12-6.39,16.7-8.45,6.6-23.36,6.76-19.74,21.61,1.92,7.9.79,10.33-4,16.7-3.2,4.29-6.9,10.21-7,15.54a25.42,25.42,0,0,0,6.82,17.07,16.68,16.68,0,0,0,6.35,3.88,18.33,18.33,0,0,0,12.52-.67c12.44-5.49,6.74-28.87,18.36-33.92,5.67-2.47,10.43,1.55,14-2.29,1.55-1.67,2.22-4.14,2.47-6.88a61.37,61.37,0,0,0,.12-6.94,46.64,46.64,0,0,0-.53-6v0c0-.22-.06-.42-.1-.61-1.88-.81-3.43-1.32-4.46-1.75-3.57-1.51-4.34-2.07-5-2.72a9.73,9.73,0,0,1-2.08-3.51c-2.12-6.07,2-14,8.09-11.93,2,.66,4.22,4.07,6.12,4.23s7.19-3.53,9.19-4.37c7.92-3.27,17.11-6.68,22.4-14-.18,2.57,3.21,9.29,3.47,13.54a2.48,2.48,0,0,0,0,.29c.11,2,1.19,21.85-9,28.42-1.22.78-2.57,1.37-3.68,2-1.26.7-2.22,1.47-2.34,2.66a2.84,2.84,0,0,0,.49,1.86,7.75,7.75,0,0,0,.46.7,6.12,6.12,0,0,0,.46.5c3.18,3.06,9.48,4.12,9.48,4.12,9.17,1.54,10.35,19.9,20.82,21.61.54.09,4.83.73,7.09-1.68C279.66,315.41,272.62,300.61,267.23,289.27Z"/><path class="cls-9" d="M236.19,293.28a2.84,2.84,0,0,0,.49,1.86c-2.07.34-4,1.45-6.15,1.47-4.88,0-9.72-.15-14.27-2.13a5.09,5.09,0,0,0-2.35-.43,61.37,61.37,0,0,0,.12-6.94,46.64,46.64,0,0,0-.53-6,5,5,0,0,1,2.74,1.45c4.9,6.39,11.88,7.78,19.37,7.92a16.48,16.48,0,0,1,2.64.1,1.15,1.15,0,0,1,.28.08C237.27,291.32,236.31,292.09,236.19,293.28Z"/><path class="cls-3" d="M193,349.18c-.34-1.66.53-3,1.35-4.25,3.24-5,6.63-9.94,8.07-15.87.17-.66.65-1.36,1.43-1.31,1.16.08,1.06,1.11,1.05,1.9a8.14,8.14,0,0,1-.27,2.89c-2.5,6.37-5.81,12.25-11,16.92A.47.47,0,0,1,193,349.18Z"/><path class="cls-1" d="M271.34,542.69c.43-.52.73-1.23,1.62-1,4,2.28,8.06,3.91,12.8,3a2.61,2.61,0,0,1,2.79,1.32c1.56,5.35.91,11.1,3.08,16.37.43,1,10.07,9.72,14,13.55a27.91,27.91,0,0,1,2.17,1.86c1.68,2,3.88,4.57,2.46,6.88-1.29,2.12-4,0-6-.57-7.05-1.9-14-4.09-21.05-6a5.48,5.48,0,0,1-4.2-3.84c-1.66-4.56-2.58-9.41-5.2-14.25a52.83,52.83,0,0,0-5.17,10.38c-.47,1.46-.79,3.11-2.94,2.53-2-.53-2-2.15-1.68-3.67C266.05,560.24,266.69,550.91,271.34,542.69Z"/><path class="cls-1" d="M242,545.94c.43-.52.73-1.23,1.62-1,4,2.28,8.06,3.9,12.8,3a2.6,2.6,0,0,1,2.79,1.32c1.56,5.34.91,11.1,3.08,16.37.43,1,10.07,9.72,14,13.55a26.32,26.32,0,0,1,2.18,1.86c1.67,2,3.87,4.57,2.46,6.88-1.29,2.12-4,0-6-.57-7-1.91-14-4.09-21-6a5.48,5.48,0,0,1-4.2-3.84c-1.66-4.56-2.58-9.41-5.21-14.25a53.32,53.32,0,0,0-5.16,10.38c-.47,1.46-.8,3.11-2.94,2.53-2-.53-2-2.15-1.68-3.67C236.69,563.49,237.33,554.16,242,545.94Z"/><polygon class="cls-10" points="161.74 604.01 154.82 604.01 198.23 386.31 205.15 386.31 161.74 604.01"/><polygon class="cls-10" points="515.41 604.01 522.33 604.01 478.91 386.31 472 386.31 515.41 604.01"/><rect class="cls-10" x="113.27" y="379.52" width="450.6" height="14.59" rx="2.28"/><path class="cls-10" d="M3.08,606.7h0c-2.45-1.05-3.84-3.37-2.64-6.94,10.41-30.87,21-63.78,31.46-94.63,1.21-3.57,3.58-4.28,6-3.22h0c2.45,1.06,3.7,3.35,2.54,6.94-10,31-20.72,63.84-31.28,94.63C8,607,5.53,607.74,3.08,606.7Z"/><path class="cls-10" d="M109.77,607.84h0c2.46-1,4-3.3,2.86-6.89C103,569.94,93.22,537,85,505.57c-1-3.64-3.19-4.34-5.6-3.34h0c-2.41,1-3.81,3.25-2.93,6.91C84,540.8,94,573.6,103.72,604.49,104.85,608.07,107.3,608.82,109.77,607.84Z"/><path class="cls-9" d="M83.21,297.58a233.84,233.84,0,0,1,24,47.66c1.5,4,2.92,8.51,4.14,12.68,23,2.85,45.84,4.76,69,5.84,4.13-1.76,9.41-3.61,13.79-3,12.11,1.62,20.13,7.78,26.36,17.91-9.42-1.17-18.77-2.42-28.17-3.6-29.34,2.55-58.84,5.09-88.21,5.56-4.48.07-5.27-.12-8.32-4.12C86.3,364,78.51,349.09,72.47,334.22c1.82-1.64,4.41-3.6,5.65-5.59C84.39,318.61,85.59,308.94,83.21,297.58Z"/><path class="cls-13" d="M77.55,292c0-.74,0-1.46,0-2.21A6.84,6.84,0,0,1,83.93,292c6.56,6.85,11,14.57,14.8,23.22a48.66,48.66,0,0,1,2.41,6.48c.62,2.27.92,4.07-.84,6.08s-4.68,3-7.26,4c-1.14.42-1.38-.37-2.08-1a6.54,6.54,0,0,1-2.22-3.49C85.61,315.22,82.72,303.39,77.55,292Z"/><path class="cls-1" d="M77.55,292c0-.74,0-1.46,0-2.21A6.84,6.84,0,0,1,83.93,292c6.56,6.85,11,14.57,14.8,23.22a48.66,48.66,0,0,1,2.41,6.48c.62,2.27.92,4.07-.84,6.08s-4.68,3-7.26,4c-1.14.42-1.38-.37-2.08-1a6.54,6.54,0,0,1-2.22-3.49C85.61,315.22,82.72,303.39,77.55,292Z"/><path class="cls-14" d="M60.26,296c.56.64,1.13,1.28,1.66,1.94A7.19,7.19,0,0,1,60.26,296Z"/><path class="cls-9" d="M95.28,549.27,81.64,564.19l11.44,8.48q6.63-7.38,13.28-14.74Z"/><path class="cls-10" d="M83.23,561.29c.51-.36,1.24-.79,1.73-.08,2.44,3.5,5,6.38,9.14,7.92a2.12,2.12,0,0,1,1.63,2.28c-1.08,5-3.87,9.55-4.62,14.68a4.5,4.5,0,0,0,.31,2.83c.69,5.17,3.4,9.51,5.17,14.32a20.59,20.59,0,0,1,1,2.46c.48,2.2,1.17,5.34-1,6.56s-3.31-1.66-4.68-3c-4.82-4.63-9.73-9.36-14.52-14.09a5.14,5.14,0,0,1-1.73-5c.65-4.48,1.9-9.19,2-13.83a55,55,0,0,0-8.8,6.23c-1.1,1-2.17,2-3.48.74s-.76-2.54.19-3.67C71.09,573,76.05,566.28,83.23,561.29Z"/><path class="cls-9" d="M221.4,554.8q3,9.57,6,19.14l13.22-5.51-6-18.78Z"/><path class="cls-10" d="M225.32,569.15c.12-.6.36-1.41,1.2-1.24,4.2.85,8.07,1.17,12.17-.56a2.14,2.14,0,0,1,2.76.53c2.68,4.35,3.81,9.55,6.82,13.76a4.53,4.53,0,0,0,2.18,1.83c4.1,3.26,9.07,4.54,13.69,6.8a21.4,21.4,0,0,1,2.4,1.13c1.85,1.25,4.55,3,3.79,5.44s-3.57,1.07-5.47,1.06c-6.7,0-13.57-.1-20.33-.24a5.16,5.16,0,0,1-4.7-2.41c-2.64-3.68-5-7.93-8.14-11.35a53.66,53.66,0,0,0-2.09,10.53c-.1,1.49-.24,2.89-2,2.91s-2.32-1.31-2.41-2.78C224.64,585.92,223.56,577.66,225.32,569.15Z"/><path class="cls-4" d="M202.11,447a6.42,6.42,0,0,0-3.94-5.93c-4.1-2.05-8.46-3.89-12.74-5.57-3.7-1.45-7.66-2.64-11.36-3.92-16.72-5.77-34-10.56-50.77-15.74-9.43-2.91-18.27-5.38-27.5-8.6-2.61-.91-5.14-1.69-7.94-.91-1.82.51-2.53,2.43-3.47,3.92-4.37,6.93-9.7,12.29-17.57,14.77-9.4,3-18.51,1.88-28.11,1.65A45.89,45.89,0,0,1,24.91,424c-1.59-.54-3.09-2.23-4.8-1.34-1.1.56-1.39,2.11-1.58,3.34-2.34,15.67.63,27.92,12.11,39.16a27.32,27.32,0,0,0,10.13,6.12c4.73,1.74,7.65,3.44,13.66,3.51,28.22.37,58.41-.39,87.08-1.25C127,491,113,511.39,101.2,530.23c-4,6.39-5.86,9.19-8.6,15.9,3,2.85,7.86,24.12,18.57,13s52.84-58.85,65.38-72.45c3.81-4.14,4.84-5.28,5.67-3.9a5.77,5.77,0,0,0,.08-1.35C191.33,470.59,195.2,458,202.11,447Z"/><path class="cls-4" d="M239.6,546.45c-10.22-23.33-21.71-56-30.38-80.22-3.31-9.24-3.85-10.74-7.1-18.51,0-.24,0-.46,0-.68-6.91,11-10.78,23.55-19.81,34.39a5.77,5.77,0,0,1-.08,1.35c.9,1.48,1.58,5.89,5.25,12.78,7.08,13.28,27.94,47.15,34.79,66.22a3,3,0,0,0,3.57,2.24c5-.69,9.89-.58,14.42-3.13,1.9-.36,3.61-1.14,5.61-1.24C242.93,553.15,243.13,554.53,239.6,546.45Z"/><path class="cls-4" d="M98.49,423.47l95.85,33.61C166.94,439.24,129.68,432.55,98.49,423.47Z"/><path class="cls-1" d="M97.27,332.63a4.28,4.28,0,0,1-1.38,1.75c0-.12-.08-.21-.11-.33s0-.07,0-.11c-.17-.43-.32-.89-.49-1.32l-7,1.79q-7.08,1.81-14.12,3.66c-2.33.62-4.68,1.25-7,1.89.1.24.19.51.31.74a3.5,3.5,0,0,0,.34.7c1,1.64,2.63,1.89,3.78,3.61,2.18,3.24.84,2.22,1.57,7.59s12.23,17.15,17.68,21.27c.64.5,3.44,3.58,4.39,4.32-.23,2.72-.68,5.22-1,7.83a.12.12,0,0,0,0,.08,87.72,87.72,0,0,1-5.75,20.15l-.23.57c-1.83,1.57-2.1,4.09-3.39,6-7,10.3-15.14,16.07-26.93,19.82a142,142,0,0,1-27,5.47,13.45,13.45,0,0,1-4.62-.32,29.5,29.5,0,0,1-7.53-2.5l0,0c-.1-.08-.19-.13-.28-.21a4.58,4.58,0,0,1-.46-.34,10.25,10.25,0,0,1-2.35-2.52c-.13-.21-.26-.41-.39-.64,0,0,0,0-.06-.11s-.17-.4-.23-.57a.34.34,0,0,1,0-.12,13.18,13.18,0,0,1-.42-1.32.3.3,0,0,1,0-.11c0-.25,0,0,0-.19a2.58,2.58,0,0,1-.07-.42,5.35,5.35,0,0,1-.1-.89c0-.23,0-.45,0-.7v-.32a15.6,15.6,0,0,1,1.27-4.92,3.42,3.42,0,0,1,.13-.34v0s0,0,.12-.19l.17-.23c1.74-2.53,3.75-4.62,5.83-7.09a3.2,3.2,0,0,0,.22-.27c.06-.08.14-.17.21-.28a44.17,44.17,0,0,0,3.85-8.24c.22-.77.85-2,1.11-3,.1-.32.19-.51.38-1.1s.57-1.7.81-2.53c.55-1.93,1.14-4.07,1.56-6.1.22-1,.41-2,.53-3,2.12-18.42.92-36.89,2-55.34.08-1.23.23-2.42.38-3.62a101.9,101.9,0,0,1,2.78-14.25c.42-1.51.83-2.61,1.14-3.48,0,0,4.46-13,9.56-16.43,0,0,.47-.32,1-.68l.51-.32.58-.32c.57-.32,1.5-.8,2.27-1.14l2.37-1c.91-.38,2.29-.93,3.31-1.28s1.95-.67,2.95-1a.47.47,0,0,0,.16,0l.09,0,.11,0c.21-.05.61-.11.82-.15a13.77,13.77,0,0,1,2.8-.11l1.44.07a.41.41,0,0,0,.15,0h.09a.07.07,0,0,0,.06,0H65c.44,0,.57.06,1.06.12l1.38.11c.66.06,4.53-.09,10-.57l.76-.07,1.76-.15a74.31,74.31,0,0,0,4.09,14,56.79,56.79,0,0,0,6.3,11.58s6.57,8.88,7.25,14.4A4.41,4.41,0,0,1,97.27,332.63Z"/><path class="cls-1" d="M59.19,290.66c.36.68-5.86,4.33-12.47,10.94-4.75,4.75-6.62,19.11-7,22.1-1,7.69,2.61,21.05,3.25,23.19,2.6,8.66,4.17,10.95,2.8,17-1,4.2-3.74,4.14-5.64,6.94-7.32,10.87-2,28.09-4.75,40.28a53.09,53.09,0,0,1-5.62,14.27c-2.84,4.94-6.56,9-10.84,9.57a4.14,4.14,0,0,1-.66.06,3.58,3.58,0,0,1-.48,0c-1.57-.21-2-1.57-2.33-2.82a7.17,7.17,0,0,0-.56-1.4,5.72,5.72,0,0,1-.59-1.36.3.3,0,0,1,0-.11,7.41,7.41,0,0,1-.21-2.2V427a19.71,19.71,0,0,1,1.27-5.15l.12-.34s0,0,0,0,0,0,.12-.19l.17-.23c.23-.28.57-.72.83-1,1.74-2,3.31-4.07,5-6.09a3.2,3.2,0,0,0,.22-.27c.06-.08.14-.17.21-.28a44.17,44.17,0,0,0,3.85-8.24c.22-.77.85-2,1.11-3,.1-.32.19-.51.38-1.1s.57-1.7.81-2.53c.55-1.93,1.14-4.07,1.56-6.1.22-1,.41-2,.53-3,2.12-18.42.92-36.89,2-55.34.08-1.23.23-2.42.38-3.62a101.9,101.9,0,0,1,2.78-14.25c.42-1.51.83-2.61,1.14-3.48,0,0,4.46-13,9.56-16.43,0,0,.47-.32,1-.68l.51-.32.58-.32c.57-.32,1.5-.8,2.27-1.14l2.37-1c.91-.38,2.29-.93,3.31-1.28s1.95-.67,2.95-1A0,0,0,0,1,59.19,290.66Z"/><path class="cls-4" d="M193,489.13c-.45-3.52-.86-6.49-3.48-9.08A28.35,28.35,0,0,0,193,489.13Z"/><path class="cls-4" d="M34.34,456.46a10.17,10.17,0,0,1-5-7.56A29.14,29.14,0,0,1,34.34,456.46Z"/><path class="cls-4" d="M106.35,534.28c-1.26,2.47-3.25,4.09-5.34,5.86C101.8,537,103.52,535.68,106.35,534.28Z"/><path class="cls-4" d="M122.77,514.11c-2.1,2.23-3.77,4.75-6.17,6.69C117,517.25,119.71,515.44,122.77,514.11Z"/><path class="cls-4" d="M137.52,493.06c-1.19,1.78-2.37,3.47-3.62,5.25-.4.57-1.08,1.26-1.73.68s-.14-1.1.24-1.63A10.89,10.89,0,0,1,137.52,493.06Z"/><path class="cls-4" d="M113.72,525.48c-1.18,1.43-2.3,2.91-3.52,4.3a.89.89,0,0,1-1.33.09c-.44-.39-.25-.89.1-1.29C110.36,527,111.54,525.81,113.72,525.48Z"/><path class="cls-4" d="M82.15,468.67a6.14,6.14,0,0,1-5.24-.26.73.73,0,0,1-.33-.92.79.79,0,0,1,.83-.55c1.64.28,3.2.62,4.84.95C82.08,468.05,82.4,468.57,82.15,468.67Z"/><path class="cls-4" d="M145.54,481.48a20.84,20.84,0,0,1-4.37,5.81C141.11,484.12,143,483,145.54,481.48Z"/><path class="cls-4" d="M97.36,470.29a7.37,7.37,0,0,1-5,.07c-.48-.17-.84-.46-.79-1a.8.8,0,0,1,1-.71C94.34,469.11,95.83,469.25,97.36,470.29Z"/><path class="cls-4" d="M44.73,464.46c-2.49-.47-3.82-1.22-5.08-3.45A9.81,9.81,0,0,1,44.73,464.46Z"/><path class="cls-4" d="M51.9,468.18c2.15-1,3.68-.45,5.48.95C55.36,469.58,53.75,469,51.9,468.18Z"/><path class="cls-4" d="M64.61,470a9.35,9.35,0,0,1,6.43,1C68.57,471.28,66.64,471.68,64.61,470Z"/><path class="cls-4" d="M196,496.19c1.82,2,2.08,4,2.47,6.57A9.41,9.41,0,0,1,196,496.19Z"/><path class="cls-4" d="M151,473.22a14.46,14.46,0,0,1-3.66,4.76C147.35,475.25,148.74,474.62,151,473.22Z"/><path class="cls-4" d="M129.71,503.76a5.19,5.19,0,0,1-.12,1c-.72,1.48-1,2.72-2.56,3.39-.11,0-.48-.3-.44-.41A7.24,7.24,0,0,1,129.71,503.76Z"/><path class="cls-4" d="M121.61,469.06c-1.61-.2-3-.11-4.32-1.16C119.44,467.21,120,467.45,121.61,469.06Z"/><path class="cls-4" d="M104.69,468.58c2.11-.85,3.53-.53,5.5.5A7.7,7.7,0,0,1,104.69,468.58Z"/><path class="cls-4" d="M151.25,467.42c-1.59.23-2.87.44-4.27-.51C148.94,466,149.56,466.09,151.25,467.42Z"/><path class="cls-4" d="M134.37,467.88a5.86,5.86,0,0,1,4.47-.07A6.26,6.26,0,0,1,134.37,467.88Z"/><path class="cls-4" d="M224.73,548.82c2.35,1.71,2.73,3.81,3.29,6.52C226,553.26,225,551.72,224.73,548.82Z"/><path class="cls-4" d="M220.31,540.92a26.92,26.92,0,0,1-3.88-6.74C219.39,535.49,219.83,537.91,220.31,540.92Z"/><path class="cls-4" d="M208.47,521.5c3.29,1.84,4,3.4,4.56,7.09Z"/><path class="cls-9" d="M96.18,253.79A29,29,0,0,1,95.8,257c-.48,3.17-.26,7.87-.63,10.77C94,276.76,88.71,281.54,80,282c-.59,0-1.12-.25-1.67-.25-.09,3.55.09,8.74,0,12-.24,5.29-3.29,7.7-8,7.68-2.92,0-5.18-1.72-7.61-2.91a1.4,1.4,0,0,1-.59-.52c-.09-.16.19-.22.22-.41,1.4-8.24,1.41-15.33-1.56-23.26-.55,1.73-1,3.37-1.5,5.2,0-.91,0,.62,0-.87s-.15-6-.13-8.05c-6.81-5.65-10.33-11.83-10.47-20.71,0,0,0,0,0-.06-7-13.7,13.92-22,26-21.21,10.76.71,19.79,9.67,21.51,21A21.07,21.07,0,0,1,96.18,253.79Z"/><path class="cls-9" d="M78.28,281.71q-4-6-8-11.92c-2.71,8,1.19,13.52,8,17.46C78.27,285.4,78.28,283.56,78.28,281.71Z"/><path class="cls-4" d="M103.27,243.3c-1,3.28-4.21,5.42-7.07,6.22-6,1.66-11.17,1.56-17.11,1-.48,3.09-.93,6.2-1.27,9.34-1.9.06-3.12.56-5.17.52s-4.9-.75-7.15-.78c-1.46,3.95-3.6,11-4.67,14.31s-.87,3-1.64,5.6a2.35,2.35,0,0,0,0-.6c0-.31,0-.55,0-.93-.81-4.53-1.65-6.8-4.89-10.72-5.66-6.85-9.08-15-8.19-24.79.66-7.15,7.64-15.63,14.06-17.82C80.62,217.69,94.12,224.62,103.27,243.3Z"/><path class="cls-9" d="M68.61,251.85a6.48,6.48,0,0,1,8.65,3.07c1.62,3.21.72,6.91-2.58,8.53a6.61,6.61,0,0,1-8.74-3.1A6,6,0,0,1,68.61,251.85Z"/><path class="cls-4" d="M63.49,221.13a16.09,16.09,0,0,1-15.78,16.58c-9.08.34-16.27-6.22-16.44-15.35a16.12,16.12,0,0,1,15.82-16.58A15.37,15.37,0,0,1,63.49,221.13Z"/><path class="cls-9" d="M62.26,297.56c0,.18-.21.3-.25.39s0,0,0,0,0,0-.06-.06c-.51-.82-1.13-1.08-1.65-2a6.14,6.14,0,0,1-.83-3.48c.28-3.56-.31-9.63-.15-12.66s1-3.08,1.41-5.51C63.68,282.29,63.68,289.3,62.26,297.56Z"/><path class="cls-10" d="M65.86,219.54c-1,.23-1.54-.72-2.38-.87-1-.2-1.76.54-2.52,1.3-4.36,4.39-8.72,8.95-13.47,13-.07.07-.21.08-.22.17-.35,2-1.85,2.45-3.6,3.12a2,2,0,0,1,2,1.37c2.68,2.71,3.46,2.63,6.11-.14.46-.48,1-1.11,1.53-1.68a52.69,52.69,0,0,1,9.14-8.57A23.87,23.87,0,0,0,65,224.89,4,4,0,0,0,65.86,219.54Z"/><path class="cls-9" d="M93.87,273c-1.33-.72-2.12-1.6-.78-2.77s1.15-2.57.6-4-1-1.94-1.36-3.26-.5-2.28.67-3.29,1.1-2.83,1.14-4.12.26-1.58,1.38-1.83a4.83,4.83,0,0,1,.3,2.62A18.66,18.66,0,0,0,96.87,267C98.12,270.29,96,271.16,93.87,273Z"/><path class="cls-1" d="M95.87,334.39c-2.3,1.68-6.59,2.61-9,3.1-5.58,1.13-15.21-.13-19.19,4-.15-.51-.38-1-.56-1.49,9.35-2.59,18.76-4.94,28.16-7.36C95.45,333.2,95.72,333.78,95.87,334.39Z"/><path class="cls-9" d="M218.48,379.05c-10.66.79-21.16.88-31.83,1.77-29.31,2.45-58.88,5-88.21,5.59-2,0-2.55.38-4.41-.41s-2.35-1.47-4-3.73a187.86,187.86,0,0,1-17.87-30c-1.63-3.49-3-7.28-4.52-10.83,4-4.12,13.61-2.84,19.19-4,2.44-.49,6.73-1.42,9-3.1,3.6,9.67,6.85,19.42,9.84,29.29,23,2.81,45.85,4.71,69,5.8,4.18-1.57,9.47-3.21,13.8-3.05C200.66,366.87,209.75,371,218.48,379.05Z"/><path class="cls-1" d="M52.75,311.13c-1.42,11.49,3,20.5,11,28.43Z"/><path class="cls-10" d="M96.51,507c-23.16,0-51.59-.2-74.77-.66-9.17-.18-14.09-7.19-13.95-15.89h0c.14-8.69,5.45-15.83,14.69-15.84,23.35,0,52.13-.11,75.43.64,9.22.3,13.49,7.39,13.17,16h0C110.76,500,105.68,507,96.51,507Z"/><path class="cls-15" d="M296.38,308h-38.7a8,8,0,0,0-2.94,5.14c-3.65,19.68-8.63,39.12-11.13,59a15.35,15.35,0,0,0-.13,2.93,9.36,9.36,0,0,0,1.27,4.66h44.89c7.3-.63,13.66-1.18,17.24-1.44a39.61,39.61,0,0,0,2.82-3.22c8.71-10.79,10.14-22.9,2.88-35.24C306.49,329.54,299.64,319.71,296.38,308Z"/><path class="cls-15" d="M295.44,308a31.41,31.41,0,0,0,7.36,21.09c7,8.74,12.6,18.26,11.86,30.54-.45,7.47-7.16,11.69-7.78,18.7,9.45,1.79,14.56-1.32,15.62-11.67L332.59,308Z"/><path class="cls-15" d="M315,377.32v.3a2.47,2.47,0,0,1-.15.81,2.2,2.2,0,0,1-2,1.37H196.28a2.2,2.2,0,0,1-2.18-2.18v-.3a2.2,2.2,0,0,1,2.18-2.18H312.8A2.19,2.19,0,0,1,315,377.32Z"/><circle class="cls-16" cx="291.5" cy="341.15" r="8.45"/><path class="cls-17" d="M484.76,356.08c-2.48.65-4.91,1.25-7.26,1.8a1.53,1.53,0,0,0-.3,0c-.25-.43-.5-.85-.77-1.27.54-.4.44-1.21.17-3.05-.5-3.57-.86-7.16-1.42-10.72-1.17-7.31-.4-14.68-1-22-.28-3.18-.71-6.36-.88-9.57-.09-1.59-1.44-2.59-1.76-4,.65-.91,1.32-1.77,2.7-1.56,1.54.21,3.11.46,4.65.65a3.65,3.65,0,0,1,1.9.73C482,318.35,483.36,334.17,484.76,356.08Z"/><path class="cls-9" d="M392,298.61c12.34-1.73,24.28-4.6,36.3-7.62.72-5.39,1-9.92-2.22-14.69-8.85,0-17.5-1.71-26.37-1.35-6.8-1.35-13.25-1.8-20,0-5,1.32-6.72,5.72-8.84,9.64-1,1.95-1.38,4.16-2.41,6.13,1,4,1.94,7.86,6.87,8.78A34.48,34.48,0,0,0,392,298.61Z"/><path class="cls-9" d="M368.46,290.71c3.28-2.39,3.41-6.14,5.56-9.19,2.94-4.17,5.89-6.49,11.52-6.42,4.62,0,9.53.1,14.2-.14,1.4-7,2.78-14.13,4.18-21.18.05-.25.24-.5.28-.72.52-2.72.7-4.43-.09-5.44-1.32-1.66-4.61-1.32-5.5-1.23-4.33.46-12.51-.08-28.79-3.46a87.52,87.52,0,0,0-3.59,35.73A83.34,83.34,0,0,0,368.46,290.71Z"/><path class="cls-9" d="M379.34,577.45q-2.58,10.71-5.17,21.44l-16.12-2.22,5.25-21.15Z"/><path class="cls-9" d="M466.55,574q-.09,10.92-.15,21.83l-16.31.92q.12-10.79.28-21.56Q458.46,574.6,466.55,574Z"/><path class="cls-10" d="M376.21,595.4c-.6-.81-1.16-1.42-2.43-.66a14.8,14.8,0,0,1-8.77,1.88,7.87,7.87,0,0,1-6.55-4c-.6-1.17-1-1.36-2.14-1-8.91,3.14-18.55,6.79-27.25,10a5.73,5.73,0,0,0-3.76,3.34h0c-.66,1.52,0,3,2.19,3,15.05.14,31.2.32,46.3.24,2.38,0,3.1-1,3.27-3.13s-.36-5.69-.33-8.1a.81.81,0,0,0-.1-.44A7.06,7.06,0,0,0,376.21,595.4Z"/><path class="cls-10" d="M448.5,593.54c.62-.8,1.19-1.4,2.45-.64a14.8,14.8,0,0,0,8.76,2,8,8,0,0,0,6.63-3.93c.63-1.16,1.05-1.34,2.16-.94,8.89,3.23,18.51,7,27.19,10.28a5.8,5.8,0,0,1,3.73,3.38h0c.64,1.53-.06,3-2.24,3-15.1,0-31.3,0-46.44-.26-2.39,0-3.09-1-3.24-3.16s.43-5.67.45-8.08a.75.75,0,0,1,.11-.44A6.23,6.23,0,0,1,448.5,593.54Z"/><path class="cls-8" d="M457.16,356c.1-.32.21-.64.31-1A96.37,96.37,0,0,1,405,347.29q-12.44,60.49-25.84,122.09Q366.53,527.3,353.51,584l29.14-.28c19.9-60.93,39.63-121.91,59.72-182.8,3,60.48,5.16,121,7.41,181.49l30.92.36c2.26-75.92,4.48-151.82,5.68-227.77Z"/><path class="cls-4" d="M507.65,257.52l-.06.11a1.47,1.47,0,0,1-.71.89c-.21.13-.46.23-.76.44-.72.49-1.63,0-2.46.05-.13,0-.51,0-.76,0-7.46.63-15.16,1.93-22.6,1.86-2.3,0-3.71.21-4.44.89s-.84,1.64-.61,3.21c.06.46.15.95.27,1.48,1.24,5.81,1.83,12.26,3.76,18.17.27.79.7,2.08.91,3,0,0,0,0,0,.05s0,.19.09.4v0a195.06,195.06,0,0,1,3.32,21.22c.05.47.11,1.09.2,2,0,0,0,.1,0,.13,1.63,15.32,2.58,31.16,3.75,46.64-1.46.28.32,0-1.19.3l-.08,0c-8.12,1.61-68,13.53-81.09-4.15a15.66,15.66,0,0,1-1.27-2c-3.12-5.62-2.29-11.87,1.1-19.7.05-.14.11-.29.17-.42,4.54-10.33,7.4-24.21,4.27-36.32,0-.07-.05-.24-.09-.34a.12.12,0,0,1,0-.08,44.34,44.34,0,0,0-1.93-4.67,53.57,53.57,0,0,0-11.81-15.69l0,0c-1-.91-.75.23-1.3-1a.65.65,0,0,1-.08-.17c-.07-.15-.15-.32-.23-.53-.94-2.27-1-8.86-1.68-12.47v0c-.72-3.6-7.4-8.35-7.4-8.35l-15.56-7.85s.14-.55.4-1.53l.06-.21c1.72-6.25,8.25-27.67,18.85-36.15,6.15-4.92,22.61-12.23,32.93-14.31,1-.19,3.2-.89,4.43-1a1.18,1.18,0,0,1,.26,0c.28,0,.64-.24.81-.11.48.41.7,1.13,1.29,1.53,7.51,5.11,16.66,2.82,24.74.34h0a.21.21,0,0,1,.11,0l.11,0,.55-.17c.48-.16.7-.25.87-.31l0,0h0l.45-.15.12,0,0,0h.09a.68.68,0,0,1,.28.07c.55.11,1.08.25,1.61.38a59.68,59.68,0,0,1,17.07,7.46c1,.64,2,1.28,3,2l1.06.72c.92.65,1.85,1.31,2.74,2a.14.14,0,0,1,.09.08c1.08.81,2.14,1.66,3.16,2.51s1.92,1.63,2.9,2.52l.81.74c6.95,6.62,13.25,13.4,16.92,22.05C508.41,240.51,510.77,249.89,507.65,257.52Z"/><path class="cls-4" d="M509.28,264.46c-.47,0-.95,0-1.17,0-.46,0-.59.14-.86,0s-.17-1.09-.17-1.32c-.05-1.42-.11-3-.2-4.62l-.06-.91c-.7-11.58-2.92-27.15-11.36-32.32-7.06-4.35-5.33-2.69-10.63-8.06-2.86-2.9-1.08-4.24-3.39-7.35-5.89-7.89-17.24-11.84-25.7-15.53-.11-.06-.23-.1-.32-.16-1.5-.64-.95-.34-1.88-.79l-.32-.17.15,0,0,0a.07.07,0,0,0-.05,0s0,0,.07-.07,0,0,0,0c.1-.25,1-.44,1.23-.42s.12,0,.17,0l0,0h0a1.31,1.31,0,0,1,.28,0l.42,0c.62.08,1.25.13,1.87.21a59.68,59.68,0,0,1,17.07,7.46c1,.64,2,1.28,3,2l1.06.72c.92.65,1.85,1.31,2.74,2a.14.14,0,0,1,.09.08c1.08.81,2.14,1.66,3.16,2.51s1.92,1.63,2.9,2.52l.81.74c6.95,6.62,13.25,13.4,16.92,22.05,3.26,7.61,5.62,17,2.5,24.62l-.06.11h0C507.78,257.63,508.47,260.4,509.28,264.46Z"/><path class="cls-4" d="M475.84,261.56c.17,2,.91,3.31-1.74,3.82-2.94-4.73-3.94-10-5.84-15.12-1-2.56-1.79-5.16-2.79-7.65-.61-1.49-.42-2.69,1.14-3.2s2.07.74,2.41,1.71c1,2.91,2.26,5.54,3,8.46A89.55,89.55,0,0,0,475.84,261.56Z"/><path class="cls-15" d="M469.39,332.26c-21.82.33-44.93.43-66.95.36a5.79,5.79,0,0,1-5.83-3.65c-10.44-20.81-21.44-43.18-31.51-64-1.26-2.59-.66-3.69,2.18-3.74,21.79-.4,44.83-.72,66.82-.66a5.83,5.83,0,0,1,5.85,3.69c10.49,20.89,21.54,43.36,31.63,64.22C472.84,331.13,472.24,332.22,469.39,332.26Z"/><path class="cls-9" d="M455.48,192.52c.7,1-.34,2.63-1.83,3.06a42.3,42.3,0,0,1-22.83.74c-.72-.18-1.62-1.39-1.76-1.5-2-1.57-8.86-10.26-7.08-12,2.77-2.78,6.35,1.79,10.13-.16a12,12,0,0,0,5.68-7.69c.35-1.75,0-1.86.29-4.31a20.37,20.37,0,0,1,4.41-9.33c.33,3.52-.1,3.72,1.05,8.31a60.9,60.9,0,0,0,5,11.63C449.56,182.85,453.62,189.76,455.48,192.52Z"/><path class="cls-9" d="M444.13,163.38a4,4,0,0,1-1.79,2.05c-.67.42-1,.08-1.47.37-1.8,1.25-2,3.52-1.71,5.29.86,5.29-2.18,9.63-6.19,12.18a25.18,25.18,0,0,1-9.89,4.07c-2,.46-4.19-.74-5.69-2.06-.15-.13-.37-.36-.5-.5a64.91,64.91,0,0,1-11.64-17.32,82.09,82.09,0,0,1-4.92-15.2c3.73-4.68,24.23-18.84,29.59-15.14,7.54,5.22-.62,12.9,6,17.21,2.73,1.77,4.18-.21,6.68-.63C444.55,156.84,445.32,159.89,444.13,163.38Z"/><path class="cls-10" d="M449.4,168.51a41.85,41.85,0,0,1-1.95-9.24,12.21,12.21,0,0,0-1.54-5c.46-8.31.74-21.6-12.31-20.47-13.23-11.48-27.14-3.95-35.46,6.8-4.56,5.9-5.72,4.82-11.27,7.55,15.1,8.2,28.13,4.66,40.72-5.94.06,6.3,1.13,13.15,8.3,15.85l6.94-2.27c.44,3.33.12,5.77-2.41,8.31a7.29,7.29,0,0,0,1.44,3.93c1.56,1.85,5.22,4.46,7.6,2.8C450.29,170.21,449.75,169.57,449.4,168.51Z"/><path class="cls-9" d="M439.18,168.27a1.38,1.38,0,0,0-.19.76,7.7,7.7,0,0,0,.18,2.22c.83,4.83-2.19,9.6-6.2,12a25.75,25.75,0,0,1-9.89,4.05c-2,.44-4.19-.72-5.69-2.06a3.61,3.61,0,0,1-.47-.49c1.46-.66,3.69-1.71,5-2.38a55.48,55.48,0,0,0,8.33-5.07c3.66-2.89,5.3-5.48,5.9-9.69.14-1,.4-2,.59-2.8a5.22,5.22,0,0,1,1-1.93c1.75-2.48,3.34-4.77,5.09-7.16a6.51,6.51,0,0,1,.5,1.84C443.24,161.76,440.79,164.58,439.18,168.27Z"/><path class="cls-9" d="M486.25,311.71a340.73,340.73,0,0,1-36.35-7.12c-.74-5.4-1-9.92,2.15-14.71,8.88-.13,17.53-1.95,26.43-1.79,6.77-1.5,13.24-2,20-.31,5,1.26,6.74,5.67,8.86,9.58,1.05,1.94,1.39,4.17,2.43,6.14-.94,4-1.93,7.92-6.86,8.91A34.26,34.26,0,0,1,486.25,311.71Z"/><path class="cls-9" d="M512,291.32a64.4,64.4,0,0,1-2.19,12.15l0,0c-3.29-2.36-3.43-6.11-5.57-9.14-2.95-4.18-5.92-6.43-11.54-6.3-4,.09-8.33.26-12.4.11-.6,0-1.23,0-1.81,0v0c-1.44-7.06-2.88-14.08-4.34-21.14,0-.24-.22-.47-.28-.73s-.28-.89-.28-1.14a2.85,2.85,0,0,0-.06-.66c-.23-1.33-1.08-2.61.15-3.86a3.35,3.35,0,0,1,1.4-.91c1.14-.42,2.52-.27,4.56-.25,6.95,0,15.77-1.23,23.2-1.72,1.23-.08,2.67-.08,4-.06l.77,0h0c.15,0,.84,2.77,1.65,6.83C510.76,272,512.59,283.92,512,291.32Z"/><path class="cls-4" d="M395.46,257.74c-.69,1.87-.58,3.38-3.19,2.72-.66-5.54.69-10.76,1.13-16.17.22-2.72.57-5.43.72-8.11.09-1.61.77-2.62,2.4-2.41s1.56,1.55,1.45,2.57c-.32,3.06-.3,6-.85,8.94A89.66,89.66,0,0,0,395.46,257.74Z"/><path class="cls-9" d="M452.05,289.88s-47-5.52-42.63,5.67,40.48,9,40.48,9Z"/><path class="cls-9" d="M376.39,295.47s36.73-1.47,37.7-9.89a4.08,4.08,0,0,0-.51-2.19c-3.36-7.73-17.18-11.62-28-8.29-3.41,1-9.69,3-11.54,8.7C372.21,289.33,375.77,294.58,376.39,295.47Z"/><path class="cls-1" d="M592.84,536.85c8-36.76,37.74-60.1,70.62-60.2,6.6,0,13.68,1.13,16.46,7.58,2.56,5.93-2.65,10.75-6.32,15-9,10.37-21.26,15.4-33.76,19.87C624,524.76,596.89,536.68,592.84,536.85Z"/><path class="cls-1" d="M582.64,531.5c-7.51-36.87-36.89-60.62-69.77-61.18-6.6-.11-13.69.94-16.57,7.35-2.64,5.9,2.5,10.79,6.12,15.08,8.82,10.49,21,15.69,33.48,20.34C551.67,519,578.59,531.28,582.64,531.5Z"/><path class="cls-3" d="M572.48,499.26c-15.18-43.07-27-87.47-27.34-136a75.77,75.77,0,0,1,.74-9.75c.74-6,3.59-7.85,7.73-6.6,6,1.82,11,6.24,15.3,11.93,19.74,25.92,28.59,58.88,33,94.55A175.78,175.78,0,0,1,598.05,516a53.38,53.38,0,0,1-2.33,6.3c-4-3.52-4.42-9.56-5.33-14.91-5.14-30.25-6.58-40.2-1-3.47C590.51,511.52,576.45,510.55,572.48,499.26Z"/><path class="cls-3" d="M597.12,504.53c7.45-36.88,36.8-60.68,69.68-61.29,6.59-.12,13.69.92,16.58,7.33,2.65,5.89-2.49,10.79-6.09,15.09-8.81,10.5-21,15.72-33.45,20.39C628.08,492,601.17,504.3,597.12,504.53Z"/><path class="cls-1" d="M588.68,468.87c1.86-20-1.9-38.44-3.51-57.48a50.06,50.06,0,0,1,4.26-25.53c5.08-11.19,10.7-13.13,19.15-7.14,5.25,3.73,7.7,9.14,9.54,14.95,8.2,25.87,1.35,51.47-23.46,76.65-2.59-1.89-.6-4.57.66-7a108.56,108.56,0,0,0,11.16-35.86c-1.85,11.79-4.68,23.56-11,35.22C594,465.37,593.07,468.66,588.68,468.87Z"/><path class="cls-1" d="M553,440.2c-6.57-4.92-13.67-9-20.21-13.93-3.54-2.68-9.42-5-7.3-11.38,2.06-6.22,8.16-5.46,12.64-5.2,21,1.25,35.36,13.15,42.58,38.37A93,93,0,0,1,583.6,487C579.63,480.57,561.69,446.73,553,440.2Z"/><path class="cls-1" d="M643.19,399c-11.08,5.38-17.27,8.38-23.6,15.26-14.7,16-16.55,38-18.07,56.07a175.23,175.23,0,0,0,1.61,42.16,114.37,114.37,0,0,0,24-21.08s23-26.94,25.42-93.94C652.55,397.28,651.81,394.79,643.19,399Z"/><path class="cls-3" d="M577.93,505.89c4.9-37.31-15.16-69.33-46.06-80.56-6.2-2.25-13.26-3.56-18.06,1.57-4.42,4.71-1.15,11,.87,16.24,4.93,12.79,14.79,21.68,25,30.13C552.72,484,574.18,504.36,577.93,505.89Z"/><path class="cls-18" d="M555.08,502.48a92.06,92.06,0,0,1,8.73,7.31,111.65,111.65,0,0,1,7.84,8.29,110.07,110.07,0,0,1,6.87,9.1l1.56,2.39,1.49,2.43c.94,1.65,1.88,3.31,2.72,5-.52-.79-1-1.58-1.55-2.38l-1.58-2.36-1.61-2.33-1.66-2.31c-2.23-3-4.53-6-7-8.9s-5-5.67-7.62-8.38S557.88,505,555.08,502.48Z"/><path class="cls-18" d="M563.16,464.69c2.72,7.12,5.35,14.27,8,21.44s5.19,14.32,7.62,21.56c1.18,3.63,2.27,7.29,3.24,11a104.37,104.37,0,0,1,2.38,11.21,81,81,0,0,1,1,11.42,66,66,0,0,1-.87,11.41,77.8,77.8,0,0,0-.9-22.7,155.91,155.91,0,0,0-5.82-22c-2.34-7.24-4.95-14.4-7.39-21.62S565.49,472,563.16,464.69Z"/><path class="cls-18" d="M573.29,452.84c2.72,7.12,5.35,14.27,8,21.43s5.19,14.33,7.62,21.57c1.18,3.63,2.27,7.29,3.24,11A103.86,103.86,0,0,1,594.48,518a80.9,80.9,0,0,1,1,11.42,65.88,65.88,0,0,1-.87,11.4,77.75,77.75,0,0,0-.9-22.69,155.91,155.91,0,0,0-5.82-22c-2.34-7.24-4.95-14.4-7.39-21.62S575.62,460.09,573.29,452.84Z"/><path class="cls-18" d="M602.68,438.84c-2.07,8.45-4.24,16.87-6.44,25.28s-4.53,16.8-6.58,25.23a190.18,190.18,0,0,0-4.85,25.55,104.9,104.9,0,0,0,.15,26,92.3,92.3,0,0,1-1.37-13,109.66,109.66,0,0,1,.46-13.07c.36-4.35,1.07-8.66,1.86-12.94s1.74-8.54,2.78-12.77c2.14-8.44,4.48-16.81,6.81-25.19S600.21,447.18,602.68,438.84Z"/><path class="cls-18" d="M617.53,449.9c-2.07,8.44-4.25,16.86-6.44,25.28s-4.54,16.79-6.59,25.23A191.6,191.6,0,0,0,599.66,526a104.49,104.49,0,0,0,.15,26,91,91,0,0,1-1.38-13,111.63,111.63,0,0,1,.46-13.06c.37-4.35,1.07-8.66,1.86-13s1.74-8.54,2.78-12.76c2.14-8.45,4.49-16.82,6.82-25.19S615.06,458.24,617.53,449.9Z"/><path class="cls-18" d="M640.61,492c-6.3,6-12.69,11.89-19.08,17.79s-12.89,11.68-19.18,17.67a192,192,0,0,0-17.88,18.87,104.46,104.46,0,0,0-13.91,21.93,92.77,92.77,0,0,1,5.86-11.66,110,110,0,0,1,7.45-10.75c2.65-3.46,5.58-6.7,8.56-9.88s6.08-6.24,9.24-9.24c6.36-6,12.86-11.72,19.35-17.51S634,497.66,640.61,492Z"/><path class="cls-8" d="M622,538.75c5.55-.58-1.5,47.87-4.94,68.41-.77,4.59-1.54,6.59-6.59,6.42-10.39-.37-20.8-.24-31.2-.06-4.11.07-5.77-1.24-6.26-5.57-2-18-10.61-61.16-11.25-65.48-.41-2.8.15-3.65,2.76-3.65C568.27,538.82,619.37,539,622,538.75Z"/></g></g></svg>